<svg width="147" height="27" viewBox="0 0 147 27" fill="none" xmlns="http://www.w3.org/2000/svg">
<path d="M0.822462 23.5732C0.274154 23.5732 0 23.5732 0 23.5732C0 23.5732 0 23.3347 0 22.8577C0 22.3808 0 22.0858 0 21.9728C0 21.8473 0 21.4017 0 20.636C0 19.8828 0 19.4498 0 19.3368C0 19.2239 0 18.9289 0 18.4519C0 17.9749 0 17.7364 0 17.7364C0 17.7364 0.274154 17.7364 0.822462 17.7364C1.37077 17.7364 1.64492 17.7364 1.64492 17.7364C1.64492 17.7364 1.64492 17.9749 1.64492 18.4519C1.64492 18.9289 1.64492 19.2239 1.64492 19.3368C1.64492 19.4498 1.64492 19.8828 1.64492 20.636C1.64492 21.4017 1.64492 21.8473 1.64492 21.9728C1.64492 22.0858 1.64492 22.3808 1.64492 22.8577C1.64492 23.3347 1.64492 23.5732 1.64492 23.5732C1.64492 23.5732 1.37077 23.5732 0.822462 23.5732ZM0.822462 14.8745C0.274154 14.8745 0 14.8745 0 14.8745C0 14.8745 0 14.636 0 14.159C0 13.682 0 13.0983 0 12.408C0 11.705 0 10.6318 0 9.18831C0 7.80756 0 6.75944 0 6.04396C0 5.32848 0 4.73225 0 4.25526C0 3.77827 0 3.53978 0 3.53978C0 3.53978 0.274154 3.53978 0.822462 3.53978C1.37077 3.53978 1.64492 3.53978 1.64492 3.53978C1.64492 3.53978 1.64492 3.77827 1.64492 4.25526C1.64492 4.73225 1.64492 5.32848 1.64492 6.04396C1.64492 6.75944 1.64492 7.80756 1.64492 9.18831C1.64492 10.6318 1.64492 11.705 1.64492 12.408C1.64492 13.0983 1.64492 13.682 1.64492 14.159C1.64492 14.636 1.64492 14.8745 1.64492 14.8745C1.64492 14.8745 1.37077 14.8745 0.822462 14.8745ZM2.46739 23.5732C1.91908 23.5732 1.64492 23.5732 1.64492 23.5732C1.64492 23.5732 1.64492 23.3347 1.64492 22.8577C1.64492 22.3808 1.64492 22.0858 1.64492 21.9728C1.64492 21.8473 1.64492 21.4017 1.64492 20.636C1.64492 19.8828 1.64492 19.4498 1.64492 19.3368C1.64492 19.2239 1.64492 18.9289 1.64492 18.4519C1.64492 17.9749 1.64492 17.7364 1.64492 17.7364C1.64492 17.7364 1.91908 17.7364 2.46739 17.7364C3.01569 17.7364 3.28985 17.7364 3.28985 17.7364C3.28985 17.7364 3.28985 17.9749 3.28985 18.4519C3.28985 18.9289 3.28985 19.2239 3.28985 19.3368C3.28985 19.4498 3.28985 19.8828 3.28985 20.636C3.28985 21.4017 3.28985 21.8473 3.28985 21.9728C3.28985 22.0858 3.28985 22.3808 3.28985 22.8577C3.28985 23.3347 3.28985 23.5732 3.28985 23.5732C3.28985 23.5732 3.01569 23.5732 2.46739 23.5732ZM2.46739 14.8745C1.91908 14.8745 1.64492 14.8745 1.64492 14.8745C1.64492 14.8745 1.64492 14.636 1.64492 14.159C1.64492 13.682 1.64492 13.0983 1.64492 12.408C1.64492 11.705 1.64492 10.6318 1.64492 9.18831C1.64492 7.80756 1.64492 6.75944 1.64492 6.04396C1.64492 5.32848 1.64492 4.73225 1.64492 4.25526C1.64492 3.77827 1.64492 3.53978 1.64492 3.53978C1.64492 3.53978 1.91908 3.53978 2.46739 3.53978C3.01569 3.53978 3.28985 3.53978 3.28985 3.53978C3.28985 3.53978 3.28985 3.77827 3.28985 4.25526C3.28985 4.73225 3.28985 5.32848 3.28985 6.04396C3.28985 6.75944 3.28985 7.80756 3.28985 9.18831C3.28985 10.6318 3.28985 11.705 3.28985 12.408C3.28985 13.0983 3.28985 13.682 3.28985 14.159C3.28985 14.636 3.28985 14.8745 3.28985 14.8745C3.28985 14.8745 3.01569 14.8745 2.46739 14.8745ZM3.43027 17.7364C3.33665 17.7364 3.28985 17.7364 3.28985 17.7364C3.28985 17.7364 3.28985 17.4979 3.28985 17.0209C3.28985 16.5439 3.28985 16.3054 3.28985 16.3054C3.28985 16.3054 3.33665 16.3054 3.43027 16.3054C3.47039 16.3054 3.54394 16.3054 3.65093 16.3054C3.75791 16.3054 3.85153 16.3054 3.93177 16.3054C4.01201 16.3054 4.19255 16.2992 4.47339 16.2866C4.75423 16.2741 5.00832 16.2552 5.23567 16.2301C5.46302 16.205 5.57669 16.1925 5.57669 16.1925C5.57669 16.1925 5.7238 16.4059 6.01801 16.8326C6.31223 17.2594 6.45933 17.4728 6.45933 17.4728C6.45933 17.4728 6.37241 17.4854 6.19855 17.5105C5.81073 17.5858 5.40952 17.6423 4.99495 17.6799C4.59375 17.7176 4.18586 17.7364 3.77129 17.7364C3.74454 17.7364 3.68436 17.7364 3.59075 17.7364C3.51051 17.7364 3.45701 17.7364 3.43027 17.7364ZM3.43027 16.3054C3.33665 16.3054 3.28985 16.3054 3.28985 16.3054C3.28985 16.3054 3.28985 16.0544 3.28985 15.5523C3.28985 15.1004 3.28985 14.8745 3.28985 14.8745C3.28985 14.8745 3.33665 14.8745 3.43027 14.8745C3.45701 14.8745 3.51051 14.8745 3.59075 14.8745C3.67099 14.8745 3.75123 14.8745 3.83147 14.8745C3.93845 14.8745 4.0187 14.8745 4.07219 14.8745C4.12568 14.8745 4.23267 14.8682 4.39315 14.8556C4.55363 14.8431 4.63387 14.8368 4.63387 14.8368C4.63387 14.8368 4.79435 15.069 5.11531 15.5335C5.4229 15.9728 5.57669 16.1925 5.57669 16.1925C5.57669 16.1925 5.46302 16.205 5.23567 16.2301C5.00832 16.2552 4.75423 16.2741 4.47339 16.2866C4.19255 16.2992 4.01201 16.3054 3.93177 16.3054C3.85153 16.3054 3.7646 16.3054 3.67099 16.3054C3.57737 16.3054 3.49713 16.3054 3.43027 16.3054ZM11.3941 8.96237C10.8324 8.96237 10.5516 8.96237 10.5516 8.96237C10.5516 8.96237 10.5516 8.91844 10.5516 8.83057C10.5516 7.43727 9.89629 6.20714 8.5857 5.1402C7.28848 4.07325 5.67031 3.53978 3.73117 3.53978C3.70442 3.53978 3.65093 3.53978 3.57069 3.53978C3.50382 3.53978 3.45701 3.53978 3.43027 3.53978C3.33665 3.53978 3.28985 3.53978 3.28985 3.53978C3.28985 3.53978 3.28985 3.31384 3.28985 2.86195C3.28985 2.35986 3.28985 2.10882 3.28985 2.10882C3.28985 2.10882 3.33665 2.10882 3.43027 2.10882C3.45701 2.10882 3.50382 2.10882 3.57069 2.10882C3.65093 2.10882 3.70442 2.10882 3.73117 2.10882C6.09825 2.10882 8.10426 2.77409 9.74918 4.10463C11.3941 5.43518 12.2166 7.00421 12.2166 8.81175C12.2166 8.91216 12.2166 8.96237 12.2166 8.96237C12.2166 8.96237 11.9424 8.96237 11.3941 8.96237ZM13.0591 8.96237C12.4974 8.96237 12.2166 8.96237 12.2166 8.96237C12.2166 8.96237 12.2166 8.91216 12.2166 8.81175C12.2166 7.00421 11.3941 5.43518 9.74918 4.10463C8.10426 2.77409 6.09825 2.10882 3.73117 2.10882C3.70442 2.10882 3.65093 2.10882 3.57069 2.10882C3.50382 2.10882 3.45701 2.10882 3.43027 2.10882C3.33665 2.10882 3.28985 2.10882 3.28985 2.10882C3.28985 2.10882 3.28985 1.87032 3.28985 1.39334C3.28985 0.91635 3.28985 0.677856 3.28985 0.677856C3.28985 0.677856 3.33665 0.677856 3.43027 0.677856C3.45701 0.677856 3.51051 0.677856 3.59075 0.677856C3.68436 0.677856 3.74454 0.677856 3.77129 0.677856C6.71343 0.677856 9.13401 1.47493 11.033 3.06907C12.9454 4.65066 13.9016 6.52095 13.9016 8.67995C13.9016 8.86823 13.9016 8.96237 13.9016 8.96237C13.9016 8.96237 13.6208 8.96237 13.0591 8.96237ZM12.357 24.0816C11.9157 24.3703 11.695 24.5146 11.695 24.5146C11.695 24.5146 11.5145 24.2824 11.1534 23.818C10.819 23.4038 10.3376 22.751 9.70906 21.8598C9.08051 20.9686 8.1845 19.751 7.02102 18.2071C6.64656 17.7176 6.45933 17.4728 6.45933 17.4728C6.45933 17.4728 6.72011 17.41 7.24168 17.2845C7.74986 17.1213 8.00396 17.0397 8.00396 17.0397C8.00396 17.0397 8.1845 17.2782 8.54558 17.7552C9.56195 19.0983 10.371 20.1715 10.9728 20.9749C11.588 21.7657 12.0962 22.4372 12.4974 22.9895C12.8184 23.4414 12.9788 23.6674 12.9788 23.6674C12.9788 23.6674 12.7716 23.8054 12.357 24.0816ZM8.7863 14.9686C8.54558 15.0941 8.42522 15.1569 8.42522 15.1569C8.42522 15.1569 8.27811 14.9623 7.9839 14.5732C7.67631 14.159 7.52252 13.9519 7.52252 13.9519C7.52252 13.9519 7.63619 13.8891 7.86354 13.7636C8.57232 13.387 9.19419 12.7908 9.72912 11.9749C10.2774 11.1464 10.5516 10.3117 10.5516 9.47074C10.5516 9.38287 10.5516 9.33894 10.5516 9.33894C10.5516 9.33894 10.8324 9.33894 11.3941 9.33894C11.9424 9.33894 12.2166 9.33894 12.2166 9.33894C12.2166 9.33894 12.2166 9.38915 12.2166 9.48957C12.2166 10.5816 11.8956 11.6172 11.2537 12.5962C10.6251 13.5628 9.80267 14.3536 8.7863 14.9686ZM13.6408 23.2343C13.1995 23.523 12.9788 23.6674 12.9788 23.6674C12.9788 23.6674 12.8184 23.4414 12.4974 22.9895C12.0962 22.4372 11.588 21.7657 10.9728 20.9749C10.371 20.1715 9.56195 19.0983 8.54558 17.7552C8.1845 17.2782 8.00396 17.0397 8.00396 17.0397C8.00396 17.0397 8.24468 16.9456 8.72612 16.7573C9.16744 16.5439 9.3881 16.4372 9.3881 16.4372C9.3881 16.4372 9.5887 16.7008 9.9899 17.228C10.9662 18.5084 11.7418 19.5377 12.3169 20.3159C12.8919 21.0816 13.3332 21.6527 13.6408 22.0293C14.0554 22.569 14.2627 22.8389 14.2627 22.8389C14.2627 22.8389 14.0554 22.9707 13.6408 23.2343ZM9.689 16.249C9.4884 16.3745 9.3881 16.4372 9.3881 16.4372C9.3881 16.4372 9.22093 16.2238 8.8866 15.7971C8.57901 15.3703 8.42522 15.1569 8.42522 15.1569C8.42522 15.1569 8.54558 15.0941 8.7863 14.9686C9.80267 14.3536 10.6251 13.5628 11.2537 12.5962C11.8956 11.6172 12.2166 10.5816 12.2166 9.48957C12.2166 9.38915 12.2166 9.33894 12.2166 9.33894C12.2166 9.33894 12.4974 9.33894 13.0591 9.33894C13.6208 9.33894 13.9016 9.33894 13.9016 9.33894C13.9016 9.33894 13.9016 9.43308 13.9016 9.62137C13.9016 10.9644 13.5205 12.2259 12.7582 13.4059C11.9959 14.5858 10.9728 15.5335 9.689 16.249ZM6.35903 16.0042C5.83747 16.1297 5.57669 16.1925 5.57669 16.1925C5.57669 16.1925 5.4229 15.9728 5.11531 15.5335C4.79435 15.069 4.63387 14.8368 4.63387 14.8368C4.63387 14.8368 4.90134 14.7929 5.43627 14.705C5.93109 14.5669 6.17181 14.4979 6.15843 14.4979C6.15843 14.4979 6.28548 14.6736 6.53957 15.0251C6.90065 15.5146 7.0812 15.7594 7.0812 15.7594C7.0812 15.7594 6.84047 15.841 6.35903 16.0042ZM7.24168 17.2845C6.72011 17.41 6.45933 17.4728 6.45933 17.4728C6.45933 17.4728 6.31223 17.2594 6.01801 16.8326C5.7238 16.4059 5.57669 16.1925 5.57669 16.1925C5.57669 16.1925 5.83747 16.1297 6.35903 16.0042C6.84047 15.841 7.0812 15.7594 7.0812 15.7594C7.0812 15.7594 7.22162 15.9665 7.50246 16.3808C7.83679 16.8201 8.00396 17.0397 8.00396 17.0397C8.00396 17.0397 7.74986 17.1213 7.24168 17.2845ZM7.76324 15.4958C7.30854 15.6715 7.0812 15.7594 7.0812 15.7594C7.0812 15.7594 6.90065 15.5146 6.53957 15.0251C6.28548 14.6736 6.15843 14.4979 6.15843 14.4979C6.17181 14.4979 6.41253 14.4226 6.88059 14.272C7.30854 14.0586 7.52252 13.9519 7.52252 13.9519C7.52252 13.9519 7.67631 14.159 7.9839 14.5732C8.27811 14.9623 8.42522 15.1569 8.42522 15.1569C8.42522 15.1569 8.20456 15.2699 7.76324 15.4958ZM8.72612 16.7573C8.24468 16.9456 8.00396 17.0397 8.00396 17.0397C8.00396 17.0397 7.83679 16.8201 7.50246 16.3808C7.22162 15.9665 7.0812 15.7594 7.0812 15.7594C7.0812 15.7594 7.30854 15.6715 7.76324 15.4958C8.20456 15.2699 8.42522 15.1569 8.42522 15.1569C8.42522 15.1569 8.57901 15.3703 8.8866 15.7971C9.22093 16.2238 9.3881 16.4372 9.3881 16.4372C9.3881 16.4372 9.16744 16.5439 8.72612 16.7573ZM11.3941 9.33894C10.8324 9.33894 10.5516 9.33894 10.5516 9.33894C10.5516 9.33894 10.5516 9.30756 10.5516 9.2448C10.5516 9.18204 10.5516 9.15066 10.5516 9.15066C10.5516 9.15066 10.8324 9.15066 11.3941 9.15066C11.9424 9.15066 12.2166 9.15066 12.2166 9.15066C12.2166 9.15066 12.2166 9.18204 12.2166 9.2448C12.2166 9.30756 12.2166 9.33894 12.2166 9.33894C12.2166 9.33894 11.9424 9.33894 11.3941 9.33894ZM11.3941 9.15066C10.8324 9.15066 10.5516 9.15066 10.5516 9.15066C10.5516 9.15066 10.5516 9.11928 10.5516 9.05652C10.5516 8.99375 10.5516 8.96237 10.5516 8.96237C10.5516 8.96237 10.8324 8.96237 11.3941 8.96237C11.9424 8.96237 12.2166 8.96237 12.2166 8.96237C12.2166 8.96237 12.2166 8.99375 12.2166 9.05652C12.2166 9.11928 12.2166 9.15066 12.2166 9.15066C12.2166 9.15066 11.9424 9.15066 11.3941 9.15066ZM13.0591 9.33894C12.4974 9.33894 12.2166 9.33894 12.2166 9.33894C12.2166 9.33894 12.2166 9.30756 12.2166 9.2448C12.2166 9.18204 12.2166 9.15066 12.2166 9.15066C12.2166 9.15066 12.4974 9.15066 13.0591 9.15066C13.6208 9.15066 13.9016 9.15066 13.9016 9.15066C13.9016 9.15066 13.9016 9.18204 13.9016 9.2448C13.9016 9.30756 13.9016 9.33894 13.9016 9.33894C13.9016 9.33894 13.6208 9.33894 13.0591 9.33894ZM13.0591 9.15066C12.4974 9.15066 12.2166 9.15066 12.2166 9.15066C12.2166 9.15066 12.2166 9.11928 12.2166 9.05652C12.2166 8.99375 12.2166 8.96237 12.2166 8.96237C12.2166 8.96237 12.4974 8.96237 13.0591 8.96237C13.6208 8.96237 13.9016 8.96237 13.9016 8.96237C13.9016 8.96237 13.9016 8.99375 13.9016 9.05652C13.9016 9.11928 13.9016 9.15066 13.9016 9.15066C13.9016 9.15066 13.6208 9.15066 13.0591 9.15066ZM0.822462 17.7364C0.274154 17.7364 0 17.7364 0 17.7364C0 17.7364 0 17.4979 0 17.0209C0 16.5439 0 16.3054 0 16.3054C0 16.3054 0.274154 16.3054 0.822462 16.3054C1.37077 16.3054 1.64492 16.3054 1.64492 16.3054C1.64492 16.3054 1.64492 16.5439 1.64492 17.0209C1.64492 17.4979 1.64492 17.7364 1.64492 17.7364C1.64492 17.7364 1.37077 17.7364 0.822462 17.7364ZM0.822462 16.3054C0.274154 16.3054 0 16.3054 0 16.3054C0 16.3054 0 16.0669 0 15.59C0 15.113 0 14.8745 0 14.8745C0 14.8745 0.274154 14.8745 0.822462 14.8745C1.37077 14.8745 1.64492 14.8745 1.64492 14.8745C1.64492 14.8745 1.64492 15.113 1.64492 15.59C1.64492 16.0669 1.64492 16.3054 1.64492 16.3054C1.64492 16.3054 1.37077 16.3054 0.822462 16.3054ZM2.46739 17.7364C1.91908 17.7364 1.64492 17.7364 1.64492 17.7364C1.64492 17.7364 1.64492 17.4979 1.64492 17.0209C1.64492 16.5439 1.64492 16.3054 1.64492 16.3054C1.64492 16.3054 1.91908 16.3054 2.46739 16.3054C3.01569 16.3054 3.28985 16.3054 3.28985 16.3054C3.28985 16.3054 3.28985 16.5439 3.28985 17.0209C3.28985 17.4979 3.28985 17.7364 3.28985 17.7364C3.28985 17.7364 3.01569 17.7364 2.46739 17.7364ZM2.46739 16.3054C1.91908 16.3054 1.64492 16.3054 1.64492 16.3054C1.64492 16.3054 1.64492 16.0669 1.64492 15.59C1.64492 15.113 1.64492 14.8745 1.64492 14.8745C1.64492 14.8745 1.91908 14.8745 2.46739 14.8745C3.01569 14.8745 3.28985 14.8745 3.28985 14.8745C3.28985 14.8745 3.28985 15.113 3.28985 15.59C3.28985 16.0669 3.28985 16.3054 3.28985 16.3054C3.28985 16.3054 3.01569 16.3054 2.46739 16.3054ZM0.822462 26.4351C0.274154 26.4351 0 26.4351 0 26.4351C0 26.4351 0 26.1967 0 25.7197C0 25.2427 0 25.0042 0 25.0042C0 25.0042 0.274154 25.0042 0.822462 25.0042C1.37077 25.0042 1.64492 25.0042 1.64492 25.0042C1.64492 25.0042 1.64492 25.2427 1.64492 25.7197C1.64492 26.1967 1.64492 26.4351 1.64492 26.4351C1.64492 26.4351 1.37077 26.4351 0.822462 26.4351ZM0.822462 25.0042C0.274154 25.0042 0 25.0042 0 25.0042C0 25.0042 0 24.7657 0 24.2887C0 23.8117 0 23.5732 0 23.5732C0 23.5732 0.274154 23.5732 0.822462 23.5732C1.37077 23.5732 1.64492 23.5732 1.64492 23.5732C1.64492 23.5732 1.64492 23.8117 1.64492 24.2887C1.64492 24.7657 1.64492 25.0042 1.64492 25.0042C1.64492 25.0042 1.37077 25.0042 0.822462 25.0042ZM2.46739 26.4351C1.91908 26.4351 1.64492 26.4351 1.64492 26.4351C1.64492 26.4351 1.64492 26.1967 1.64492 25.7197C1.64492 25.2427 1.64492 25.0042 1.64492 25.0042C1.64492 25.0042 1.91908 25.0042 2.46739 25.0042C3.01569 25.0042 3.28985 25.0042 3.28985 25.0042C3.28985 25.0042 3.28985 25.2427 3.28985 25.7197C3.28985 26.1967 3.28985 26.4351 3.28985 26.4351C3.28985 26.4351 3.01569 26.4351 2.46739 26.4351ZM2.46739 25.0042C1.91908 25.0042 1.64492 25.0042 1.64492 25.0042C1.64492 25.0042 1.64492 24.7657 1.64492 24.2887C1.64492 23.8117 1.64492 23.5732 1.64492 23.5732C1.64492 23.5732 1.91908 23.5732 2.46739 23.5732C3.01569 23.5732 3.28985 23.5732 3.28985 23.5732C3.28985 23.5732 3.28985 23.8117 3.28985 24.2887C3.28985 24.7657 3.28985 25.0042 3.28985 25.0042C3.28985 25.0042 3.01569 25.0042 2.46739 25.0042ZM0.822462 3.53978C0.274154 3.53978 0 3.53978 0 3.53978C0 3.53978 0 3.30129 0 2.8243C0 2.34731 0 2.10882 0 2.10882C0 2.10882 0.274154 2.10882 0.822462 2.10882C1.37077 2.10882 1.64492 2.10882 1.64492 2.10882C1.64492 2.10882 1.64492 2.34731 1.64492 2.8243C1.64492 3.30129 1.64492 3.53978 1.64492 3.53978C1.64492 3.53978 1.37077 3.53978 0.822462 3.53978ZM0.822462 2.10882C0.274154 2.10882 0 2.10882 0 2.10882C0 2.10882 0 1.87032 0 1.39334C0 0.91635 0 0.677856 0 0.677856C0 0.677856 0.274154 0.677856 0.822462 0.677856C1.37077 0.677856 1.64492 0.677856 1.64492 0.677856C1.64492 0.677856 1.64492 0.91635 1.64492 1.39334C1.64492 1.87032 1.64492 2.10882 1.64492 2.10882C1.64492 2.10882 1.37077 2.10882 0.822462 2.10882ZM2.46739 3.53978C1.91908 3.53978 1.64492 3.53978 1.64492 3.53978C1.64492 3.53978 1.64492 3.30129 1.64492 2.8243C1.64492 2.34731 1.64492 2.10882 1.64492 2.10882C1.64492 2.10882 1.91908 2.10882 2.46739 2.10882C3.01569 2.10882 3.28985 2.10882 3.28985 2.10882C3.28985 2.10882 3.28985 2.34731 3.28985 2.8243C3.28985 3.30129 3.28985 3.53978 3.28985 3.53978C3.28985 3.53978 3.01569 3.53978 2.46739 3.53978ZM2.46739 2.10882C1.91908 2.10882 1.64492 2.10882 1.64492 2.10882C1.64492 2.10882 1.64492 1.87032 1.64492 1.39334C1.64492 0.91635 1.64492 0.677856 1.64492 0.677856C1.64492 0.677856 1.91908 0.677856 2.46739 0.677856C3.01569 0.677856 3.28985 0.677856 3.28985 0.677856C3.28985 0.677856 3.28985 0.91635 3.28985 1.39334C3.28985 1.87032 3.28985 2.10882 3.28985 2.10882C3.28985 2.10882 3.01569 2.10882 2.46739 2.10882ZM13.6208 23.2531C14.0487 22.9644 14.2627 22.8201 14.2627 22.8201C14.2627 22.8201 14.4031 23.0146 14.684 23.4038C14.9648 23.7803 15.1052 23.9686 15.1052 23.9686C15.1052 23.9686 14.8912 24.1067 14.4633 24.3828C14.0353 24.6715 13.8214 24.8159 13.8214 24.8159C13.8214 24.8159 13.6809 24.6213 13.4001 24.2322C13.1193 23.8557 12.9788 23.6674 12.9788 23.6674C12.9788 23.6674 13.1928 23.5293 13.6208 23.2531ZM14.4633 24.3828C14.8912 24.1067 15.1052 23.9686 15.1052 23.9686C15.1052 23.9686 15.2456 24.1569 15.5265 24.5335C15.8073 24.9226 15.9477 25.1172 15.9477 25.1172C15.9477 25.1172 15.7404 25.2552 15.3259 25.5314C14.8979 25.8075 14.684 25.9456 14.684 25.9456C14.684 25.9456 14.5368 25.7573 14.2426 25.3808C13.9618 25.0042 13.8214 24.8159 13.8214 24.8159C13.8214 24.8159 14.0353 24.6715 14.4633 24.3828ZM12.3369 24.0816C12.7649 23.8054 12.9788 23.6674 12.9788 23.6674C12.9788 23.6674 13.1193 23.8557 13.4001 24.2322C13.6809 24.6213 13.8214 24.8159 13.8214 24.8159C13.8214 24.8159 13.6074 24.954 13.1794 25.2301C12.7515 25.5063 12.5375 25.6444 12.5375 25.6444C12.5375 25.6444 12.3971 25.4561 12.1163 25.0795C11.8354 24.7029 11.695 24.5146 11.695 24.5146C11.695 24.5146 11.909 24.3703 12.3369 24.0816ZM13.1794 25.2301C13.6074 24.954 13.8214 24.8159 13.8214 24.8159C13.8214 24.8159 13.9618 25.0042 14.2426 25.3808C14.5368 25.7573 14.684 25.9456 14.684 25.9456C14.684 25.9456 14.47 26.09 14.042 26.3787C13.6141 26.6548 13.4001 26.7929 13.4001 26.7929C13.4001 26.7929 13.253 26.6046 12.9588 26.228C12.6779 25.8389 12.5375 25.6444 12.5375 25.6444C12.5375 25.6444 12.7515 25.5063 13.1794 25.2301Z" fill="#374143"/>
<path d="M24.0319 26.4351C23.497 26.4351 23.2295 26.4351 23.2295 26.4351C23.2295 26.4351 23.2295 26.1967 23.2295 25.7197C23.2295 25.2427 23.2295 25.0042 23.2295 25.0042C23.2295 25.0042 23.497 25.0042 24.0319 25.0042C24.5134 25.0042 24.948 25.0042 25.3358 25.0042C25.737 25.0042 26.1182 25.0042 26.4793 25.0042C26.8537 25.0042 27.2415 25.0042 27.6427 25.0042C28.0439 25.0042 28.4986 25.0042 29.0068 25.0042C29.5418 25.0042 29.8092 25.0042 29.8092 25.0042C29.8092 25.0042 29.8092 25.249 29.8092 25.7385C29.8092 26.2029 29.8092 26.4351 29.8092 26.4351C29.8092 26.4351 29.5418 26.4351 29.0068 26.4351C28.4986 26.4351 28.0439 26.4351 27.6427 26.4351C27.2415 26.4351 26.8537 26.4351 26.4793 26.4351C26.1182 26.4351 25.737 26.4351 25.3358 26.4351C24.948 26.4351 24.5134 26.4351 24.0319 26.4351ZM24.0319 25.0042C23.497 25.0042 23.2295 25.0042 23.2295 25.0042C23.2295 25.0042 23.2295 24.7657 23.2295 24.2887C23.2295 23.8117 23.2295 23.5732 23.2295 23.5732C23.2295 23.5732 23.497 23.5732 24.0319 23.5732C24.5134 23.5732 24.948 23.5732 25.3358 23.5732C25.737 23.5732 26.1182 23.5732 26.4793 23.5732C26.8537 23.5732 27.2415 23.5732 27.6427 23.5732C28.0439 23.5732 28.4986 23.5732 29.0068 23.5732C29.5418 23.5732 29.8092 23.5732 29.8092 23.5732C29.8092 23.5732 29.8092 23.818 29.8092 24.3075C29.8092 24.772 29.8092 25.0042 29.8092 25.0042C29.8092 25.0042 29.5418 25.0042 29.0068 25.0042C28.4986 25.0042 28.0439 25.0042 27.6427 25.0042C27.2415 25.0042 26.8537 25.0042 26.4793 25.0042C26.1182 25.0042 25.737 25.0042 25.3358 25.0042C24.948 25.0042 24.5134 25.0042 24.0319 25.0042ZM24.0319 14.9874C23.497 14.9874 23.2295 14.9874 23.2295 14.9874C23.2295 14.9874 23.2295 14.749 23.2295 14.272C23.2295 13.795 23.2295 13.5565 23.2295 13.5565C23.2295 13.5565 23.497 13.5565 24.0319 13.5565C24.2593 13.5565 24.5201 13.5565 24.8143 13.5565C25.1219 13.5565 25.4294 13.5565 25.737 13.5565C26.0312 13.5565 26.3188 13.5565 26.5996 13.5565C26.8805 13.5565 27.1346 13.5565 27.3619 13.5565C27.8968 13.5565 28.1643 13.5565 28.1643 13.5565C28.1643 13.5565 28.1643 13.8013 28.1643 14.2908C28.1643 14.7552 28.1643 14.9874 28.1643 14.9874C28.1643 14.9874 27.8968 14.9874 27.3619 14.9874C27.1479 14.9874 26.9005 14.9874 26.6197 14.9874C26.3388 14.9874 26.058 14.9874 25.7772 14.9874C25.4562 14.9874 25.1419 14.9874 24.8343 14.9874C24.5401 14.9874 24.2727 14.9874 24.0319 14.9874ZM24.0319 13.5565C23.497 13.5565 23.2295 13.5565 23.2295 13.5565C23.2295 13.5565 23.2295 13.318 23.2295 12.841C23.2295 12.364 23.2295 12.1255 23.2295 12.1255C23.2295 12.1255 23.497 12.1255 24.0319 12.1255C24.2727 12.1255 24.5468 12.1255 24.8544 12.1255C25.162 12.1255 25.4696 12.1255 25.7772 12.1255C26.0714 12.1255 26.3522 12.1255 26.6197 12.1255C26.9005 12.1255 27.1479 12.1255 27.3619 12.1255C27.8968 12.1255 28.1643 12.1255 28.1643 12.1255C28.1643 12.1255 28.1643 12.3703 28.1643 12.8598C28.1643 13.3243 28.1643 13.5565 28.1643 13.5565C28.1643 13.5565 27.8968 13.5565 27.3619 13.5565C27.1479 13.5565 26.9005 13.5565 26.6197 13.5565C26.3388 13.5565 26.0446 13.5565 25.737 13.5565C25.4428 13.5565 25.1419 13.5565 24.8343 13.5565C24.5401 13.5565 24.2727 13.5565 24.0319 13.5565ZM24.0319 3.53978C23.497 3.53978 23.2295 3.53978 23.2295 3.53978C23.2295 3.53978 23.2295 3.30129 23.2295 2.8243C23.2295 2.34731 23.2295 2.10882 23.2295 2.10882C23.2295 2.10882 23.497 2.10882 24.0319 2.10882C24.5134 2.10882 24.948 2.10882 25.3358 2.10882C25.7237 2.10882 26.0981 2.10882 26.4592 2.10882C26.8337 2.10882 27.2215 2.10882 27.6227 2.10882C28.0373 2.10882 28.4986 2.10882 29.0068 2.10882C29.5418 2.10882 29.8092 2.10882 29.8092 2.10882C29.8092 2.10882 29.8092 2.35359 29.8092 2.84313C29.8092 3.30756 29.8092 3.53978 29.8092 3.53978C29.8092 3.53978 29.5418 3.53978 29.0068 3.53978C28.4986 3.53978 28.0373 3.53978 27.6227 3.53978C27.2215 3.53978 26.8337 3.53978 26.4592 3.53978C26.0981 3.53978 25.7237 3.53978 25.3358 3.53978C24.948 3.53978 24.5134 3.53978 24.0319 3.53978ZM24.0319 2.10882C23.497 2.10882 23.2295 2.10882 23.2295 2.10882C23.2295 2.10882 23.2295 1.87032 23.2295 1.39334C23.2295 0.91635 23.2295 0.677856 23.2295 0.677856C23.2295 0.677856 23.497 0.677856 24.0319 0.677856C24.5134 0.677856 24.948 0.677856 25.3358 0.677856C25.7237 0.677856 26.0981 0.677856 26.4592 0.677856C26.8337 0.677856 27.2215 0.677856 27.6227 0.677856C28.0373 0.677856 28.4986 0.677856 29.0068 0.677856C29.5418 0.677856 29.8092 0.677856 29.8092 0.677856C29.8092 0.677856 29.8092 0.922626 29.8092 1.41216C29.8092 1.8766 29.8092 2.10882 29.8092 2.10882C29.8092 2.10882 29.5418 2.10882 29.0068 2.10882C28.4986 2.10882 28.0373 2.10882 27.6227 2.10882C27.2215 2.10882 26.8337 2.10882 26.4592 2.10882C26.0981 2.10882 25.7237 2.10882 25.3358 2.10882C24.948 2.10882 24.5134 2.10882 24.0319 2.10882ZM20.7621 14.9874C20.2138 14.9874 19.9397 14.9874 19.9397 14.9874C19.9397 14.9874 19.9397 14.749 19.9397 14.272C19.9397 13.795 19.9397 13.5565 19.9397 13.5565C19.9397 13.5565 20.2138 13.5565 20.7621 13.5565C21.3105 13.5565 21.5846 13.5565 21.5846 13.5565C21.5846 13.5565 21.5846 13.795 21.5846 14.272C21.5846 14.749 21.5846 14.9874 21.5846 14.9874C21.5846 14.9874 21.3105 14.9874 20.7621 14.9874ZM20.7621 13.5565C20.2138 13.5565 19.9397 13.5565 19.9397 13.5565C19.9397 13.5565 19.9397 13.318 19.9397 12.841C19.9397 12.364 19.9397 12.1255 19.9397 12.1255C19.9397 12.1255 20.2138 12.1255 20.7621 12.1255C21.3105 12.1255 21.5846 12.1255 21.5846 12.1255C21.5846 12.1255 21.5846 12.364 21.5846 12.841C21.5846 13.318 21.5846 13.5565 21.5846 13.5565C21.5846 13.5565 21.3105 13.5565 20.7621 13.5565ZM22.4071 14.9874C21.8588 14.9874 21.5846 14.9874 21.5846 14.9874C21.5846 14.9874 21.5846 14.749 21.5846 14.272C21.5846 13.795 21.5846 13.5565 21.5846 13.5565C21.5846 13.5565 21.8588 13.5565 22.4071 13.5565C22.9554 13.5565 23.2295 13.5565 23.2295 13.5565C23.2295 13.5565 23.2295 13.795 23.2295 14.272C23.2295 14.749 23.2295 14.9874 23.2295 14.9874C23.2295 14.9874 22.9554 14.9874 22.4071 14.9874ZM22.4071 13.5565C21.8588 13.5565 21.5846 13.5565 21.5846 13.5565C21.5846 13.5565 21.5846 13.318 21.5846 12.841C21.5846 12.364 21.5846 12.1255 21.5846 12.1255C21.5846 12.1255 21.8588 12.1255 22.4071 12.1255C22.9554 12.1255 23.2295 12.1255 23.2295 12.1255C23.2295 12.1255 23.2295 12.364 23.2295 12.841C23.2295 13.318 23.2295 13.5565 23.2295 13.5565C23.2295 13.5565 22.9554 13.5565 22.4071 13.5565ZM20.7621 12.1255C20.2138 12.1255 19.9397 12.1255 19.9397 12.1255C19.9397 12.1255 19.9397 11.887 19.9397 11.41C19.9397 10.9331 19.9397 10.569 19.9397 10.318C19.9397 10.0544 19.9397 9.20087 19.9397 7.75735C19.9397 6.36405 19.9397 5.55442 19.9397 5.32848C19.9397 5.08999 19.9397 4.73225 19.9397 4.25526C19.9397 3.77827 19.9397 3.53978 19.9397 3.53978C19.9397 3.53978 20.2138 3.53978 20.7621 3.53978C21.3105 3.53978 21.5846 3.53978 21.5846 3.53978C21.5846 3.53978 21.5846 3.77827 21.5846 4.25526C21.5846 4.73225 21.5846 5.08999 21.5846 5.32848C21.5846 5.56698 21.5846 6.3766 21.5846 7.75735C21.5846 9.22597 21.5846 10.0858 21.5846 10.3368C21.5846 10.5753 21.5846 10.9331 21.5846 11.41C21.5846 11.887 21.5846 12.1255 21.5846 12.1255C21.5846 12.1255 21.3105 12.1255 20.7621 12.1255ZM22.4071 12.1255C21.8588 12.1255 21.5846 12.1255 21.5846 12.1255C21.5846 12.1255 21.5846 11.887 21.5846 11.41C21.5846 10.9331 21.5846 10.569 21.5846 10.318C21.5846 10.0544 21.5846 9.20087 21.5846 7.75735C21.5846 6.36405 21.5846 5.55442 21.5846 5.32848C21.5846 5.08999 21.5846 4.73225 21.5846 4.25526C21.5846 3.77827 21.5846 3.53978 21.5846 3.53978C21.5846 3.53978 21.8588 3.53978 22.4071 3.53978C22.9554 3.53978 23.2295 3.53978 23.2295 3.53978C23.2295 3.53978 23.2295 3.77827 23.2295 4.25526C23.2295 4.73225 23.2295 5.08999 23.2295 5.32848C23.2295 5.56698 23.2295 6.3766 23.2295 7.75735C23.2295 9.22597 23.2295 10.0858 23.2295 10.3368C23.2295 10.5753 23.2295 10.9331 23.2295 11.41C23.2295 11.887 23.2295 12.1255 23.2295 12.1255C23.2295 12.1255 22.9554 12.1255 22.4071 12.1255ZM20.7621 23.5732C20.2138 23.5732 19.9397 23.5732 19.9397 23.5732C19.9397 23.5732 19.9397 23.3347 19.9397 22.8577C19.9397 22.3808 19.9397 22.0293 19.9397 21.8033C19.9397 21.5649 19.9397 20.7239 19.9397 19.2803C19.9397 17.887 19.9397 17.0649 19.9397 16.8138C19.9397 16.5502 19.9397 16.1799 19.9397 15.7029C19.9397 15.2259 19.9397 14.9874 19.9397 14.9874C19.9397 14.9874 20.2138 14.9874 20.7621 14.9874C21.3105 14.9874 21.5846 14.9874 21.5846 14.9874C21.5846 14.9874 21.5846 15.2259 21.5846 15.7029C21.5846 16.1799 21.5846 16.5502 21.5846 16.8138C21.5846 17.0774 21.5846 17.8996 21.5846 19.2803C21.5846 20.749 21.5846 21.5962 21.5846 21.8222C21.5846 22.0356 21.5846 22.3808 21.5846 22.8577C21.5846 23.3347 21.5846 23.5732 21.5846 23.5732C21.5846 23.5732 21.3105 23.5732 20.7621 23.5732ZM22.4071 23.5732C21.8588 23.5732 21.5846 23.5732 21.5846 23.5732C21.5846 23.5732 21.5846 23.3347 21.5846 22.8577C21.5846 22.3808 21.5846 22.0293 21.5846 21.8033C21.5846 21.5649 21.5846 20.7239 21.5846 19.2803C21.5846 17.887 21.5846 17.0649 21.5846 16.8138C21.5846 16.5502 21.5846 16.1799 21.5846 15.7029C21.5846 15.2259 21.5846 14.9874 21.5846 14.9874C21.5846 14.9874 21.8588 14.9874 22.4071 14.9874C22.9554 14.9874 23.2295 14.9874 23.2295 14.9874C23.2295 14.9874 23.2295 15.2259 23.2295 15.7029C23.2295 16.1799 23.2295 16.5502 23.2295 16.8138C23.2295 17.0774 23.2295 17.8996 23.2295 19.2803C23.2295 20.749 23.2295 21.5962 23.2295 21.8222C23.2295 22.0356 23.2295 22.3808 23.2295 22.8577C23.2295 23.3347 23.2295 23.5732 23.2295 23.5732C23.2295 23.5732 22.9554 23.5732 22.4071 23.5732ZM20.7621 3.53978C20.2138 3.53978 19.9397 3.53978 19.9397 3.53978C19.9397 3.53978 19.9397 3.30129 19.9397 2.8243C19.9397 2.34731 19.9397 2.10882 19.9397 2.10882C19.9397 2.10882 20.2138 2.10882 20.7621 2.10882C21.3105 2.10882 21.5846 2.10882 21.5846 2.10882C21.5846 2.10882 21.5846 2.34731 21.5846 2.8243C21.5846 3.30129 21.5846 3.53978 21.5846 3.53978C21.5846 3.53978 21.3105 3.53978 20.7621 3.53978ZM20.7621 2.10882C20.2138 2.10882 19.9397 2.10882 19.9397 2.10882C19.9397 2.10882 19.9397 1.87032 19.9397 1.39334C19.9397 0.91635 19.9397 0.677856 19.9397 0.677856C19.9397 0.677856 20.2138 0.677856 20.7621 0.677856C21.3105 0.677856 21.5846 0.677856 21.5846 0.677856C21.5846 0.677856 21.5846 0.91635 21.5846 1.39334C21.5846 1.87032 21.5846 2.10882 21.5846 2.10882C21.5846 2.10882 21.3105 2.10882 20.7621 2.10882ZM22.4071 3.53978C21.8588 3.53978 21.5846 3.53978 21.5846 3.53978C21.5846 3.53978 21.5846 3.30129 21.5846 2.8243C21.5846 2.34731 21.5846 2.10882 21.5846 2.10882C21.5846 2.10882 21.8588 2.10882 22.4071 2.10882C22.9554 2.10882 23.2295 2.10882 23.2295 2.10882C23.2295 2.10882 23.2295 2.34731 23.2295 2.8243C23.2295 3.30129 23.2295 3.53978 23.2295 3.53978C23.2295 3.53978 22.9554 3.53978 22.4071 3.53978ZM22.4071 2.10882C21.8588 2.10882 21.5846 2.10882 21.5846 2.10882C21.5846 2.10882 21.5846 1.87032 21.5846 1.39334C21.5846 0.91635 21.5846 0.677856 21.5846 0.677856C21.5846 0.677856 21.8588 0.677856 22.4071 0.677856C22.9554 0.677856 23.2295 0.677856 23.2295 0.677856C23.2295 0.677856 23.2295 0.91635 23.2295 1.39334C23.2295 1.87032 23.2295 2.10882 23.2295 2.10882C23.2295 2.10882 22.9554 2.10882 22.4071 2.10882ZM20.7621 26.4351C20.2138 26.4351 19.9397 26.4351 19.9397 26.4351C19.9397 26.4351 19.9397 26.1967 19.9397 25.7197C19.9397 25.2427 19.9397 25.0042 19.9397 25.0042C19.9397 25.0042 20.2138 25.0042 20.7621 25.0042C21.3105 25.0042 21.5846 25.0042 21.5846 25.0042C21.5846 25.0042 21.5846 25.2427 21.5846 25.7197C21.5846 26.1967 21.5846 26.4351 21.5846 26.4351C21.5846 26.4351 21.3105 26.4351 20.7621 26.4351ZM20.7621 25.0042C20.2138 25.0042 19.9397 25.0042 19.9397 25.0042C19.9397 25.0042 19.9397 24.7657 19.9397 24.2887C19.9397 23.8117 19.9397 23.5732 19.9397 23.5732C19.9397 23.5732 20.2138 23.5732 20.7621 23.5732C21.3105 23.5732 21.5846 23.5732 21.5846 23.5732C21.5846 23.5732 21.5846 23.8117 21.5846 24.2887C21.5846 24.7657 21.5846 25.0042 21.5846 25.0042C21.5846 25.0042 21.3105 25.0042 20.7621 25.0042ZM22.4071 26.4351C21.8588 26.4351 21.5846 26.4351 21.5846 26.4351C21.5846 26.4351 21.5846 26.1967 21.5846 25.7197C21.5846 25.2427 21.5846 25.0042 21.5846 25.0042C21.5846 25.0042 21.8588 25.0042 22.4071 25.0042C22.9554 25.0042 23.2295 25.0042 23.2295 25.0042C23.2295 25.0042 23.2295 25.2427 23.2295 25.7197C23.2295 26.1967 23.2295 26.4351 23.2295 26.4351C23.2295 26.4351 22.9554 26.4351 22.4071 26.4351ZM22.4071 25.0042C21.8588 25.0042 21.5846 25.0042 21.5846 25.0042C21.5846 25.0042 21.5846 24.7657 21.5846 24.2887C21.5846 23.8117 21.5846 23.5732 21.5846 23.5732C21.5846 23.5732 21.8588 23.5732 22.4071 23.5732C22.9554 23.5732 23.2295 23.5732 23.2295 23.5732C23.2295 23.5732 23.2295 23.8117 23.2295 24.2887C23.2295 24.7657 23.2295 25.0042 23.2295 25.0042C23.2295 25.0042 22.9554 25.0042 22.4071 25.0042ZM30.6317 26.4351C30.0834 26.4351 29.8092 26.4351 29.8092 26.4351C29.8092 26.4351 29.8092 26.1967 29.8092 25.7197C29.8092 25.2427 29.8092 25.0042 29.8092 25.0042C29.8092 25.0042 30.0834 25.0042 30.6317 25.0042C31.18 25.0042 31.4541 25.0042 31.4541 25.0042C31.4541 25.0042 31.4541 25.2427 31.4541 25.7197C31.4541 26.1967 31.4541 26.4351 31.4541 26.4351C31.4541 26.4351 31.18 26.4351 30.6317 26.4351ZM30.6317 25.0042C30.0834 25.0042 29.8092 25.0042 29.8092 25.0042C29.8092 25.0042 29.8092 24.7657 29.8092 24.2887C29.8092 23.8117 29.8092 23.5732 29.8092 23.5732C29.8092 23.5732 30.0834 23.5732 30.6317 23.5732C31.18 23.5732 31.4541 23.5732 31.4541 23.5732C31.4541 23.5732 31.4541 23.8117 31.4541 24.2887C31.4541 24.7657 31.4541 25.0042 31.4541 25.0042C31.4541 25.0042 31.18 25.0042 30.6317 25.0042ZM32.2766 26.4351C31.7283 26.4351 31.4541 26.4351 31.4541 26.4351C31.4541 26.4351 31.4541 26.1967 31.4541 25.7197C31.4541 25.2427 31.4541 25.0042 31.4541 25.0042C31.4541 25.0042 31.7283 25.0042 32.2766 25.0042C32.8249 25.0042 33.0991 25.0042 33.0991 25.0042C33.0991 25.0042 33.0991 25.2427 33.0991 25.7197C33.0991 26.1967 33.0991 26.4351 33.0991 26.4351C33.0991 26.4351 32.8249 26.4351 32.2766 26.4351ZM32.2766 25.0042C31.7283 25.0042 31.4541 25.0042 31.4541 25.0042C31.4541 25.0042 31.4541 24.7657 31.4541 24.2887C31.4541 23.8117 31.4541 23.5732 31.4541 23.5732C31.4541 23.5732 31.7283 23.5732 32.2766 23.5732C32.8249 23.5732 33.0991 23.5732 33.0991 23.5732C33.0991 23.5732 33.0991 23.8117 33.0991 24.2887C33.0991 24.7657 33.0991 25.0042 33.0991 25.0042C33.0991 25.0042 32.8249 25.0042 32.2766 25.0042ZM28.9868 14.9874C28.4385 14.9874 28.1643 14.9874 28.1643 14.9874C28.1643 14.9874 28.1643 14.749 28.1643 14.272C28.1643 13.795 28.1643 13.5565 28.1643 13.5565C28.1643 13.5565 28.4385 13.5565 28.9868 13.5565C29.5351 13.5565 29.8092 13.5565 29.8092 13.5565C29.8092 13.5565 29.8092 13.795 29.8092 14.272C29.8092 14.749 29.8092 14.9874 29.8092 14.9874C29.8092 14.9874 29.5351 14.9874 28.9868 14.9874ZM28.9868 13.5565C28.4385 13.5565 28.1643 13.5565 28.1643 13.5565C28.1643 13.5565 28.1643 13.318 28.1643 12.841C28.1643 12.364 28.1643 12.1255 28.1643 12.1255C28.1643 12.1255 28.4385 12.1255 28.9868 12.1255C29.5351 12.1255 29.8092 12.1255 29.8092 12.1255C29.8092 12.1255 29.8092 12.364 29.8092 12.841C29.8092 13.318 29.8092 13.5565 29.8092 13.5565C29.8092 13.5565 29.5351 13.5565 28.9868 13.5565ZM30.6317 14.9874C30.0834 14.9874 29.8092 14.9874 29.8092 14.9874C29.8092 14.9874 29.8092 14.749 29.8092 14.272C29.8092 13.795 29.8092 13.5565 29.8092 13.5565C29.8092 13.5565 30.0834 13.5565 30.6317 13.5565C31.18 13.5565 31.4541 13.5565 31.4541 13.5565C31.4541 13.5565 31.4541 13.795 31.4541 14.272C31.4541 14.749 31.4541 14.9874 31.4541 14.9874C31.4541 14.9874 31.18 14.9874 30.6317 14.9874ZM30.6317 13.5565C30.0834 13.5565 29.8092 13.5565 29.8092 13.5565C29.8092 13.5565 29.8092 13.318 29.8092 12.841C29.8092 12.364 29.8092 12.1255 29.8092 12.1255C29.8092 12.1255 30.0834 12.1255 30.6317 12.1255C31.18 12.1255 31.4541 12.1255 31.4541 12.1255C31.4541 12.1255 31.4541 12.364 31.4541 12.841C31.4541 13.318 31.4541 13.5565 31.4541 13.5565C31.4541 13.5565 31.18 13.5565 30.6317 13.5565ZM30.6317 3.53978C30.0834 3.53978 29.8092 3.53978 29.8092 3.53978C29.8092 3.53978 29.8092 3.30129 29.8092 2.8243C29.8092 2.34731 29.8092 2.10882 29.8092 2.10882C29.8092 2.10882 30.0834 2.10882 30.6317 2.10882C31.18 2.10882 31.4541 2.10882 31.4541 2.10882C31.4541 2.10882 31.4541 2.34731 31.4541 2.8243C31.4541 3.30129 31.4541 3.53978 31.4541 3.53978C31.4541 3.53978 31.18 3.53978 30.6317 3.53978ZM30.6317 2.10882C30.0834 2.10882 29.8092 2.10882 29.8092 2.10882C29.8092 2.10882 29.8092 1.87032 29.8092 1.39334C29.8092 0.91635 29.8092 0.677856 29.8092 0.677856C29.8092 0.677856 30.0834 0.677856 30.6317 0.677856C31.18 0.677856 31.4541 0.677856 31.4541 0.677856C31.4541 0.677856 31.4541 0.91635 31.4541 1.39334C31.4541 1.87032 31.4541 2.10882 31.4541 2.10882C31.4541 2.10882 31.18 2.10882 30.6317 2.10882ZM32.2766 3.53978C31.7283 3.53978 31.4541 3.53978 31.4541 3.53978C31.4541 3.53978 31.4541 3.30129 31.4541 2.8243C31.4541 2.34731 31.4541 2.10882 31.4541 2.10882C31.4541 2.10882 31.7283 2.10882 32.2766 2.10882C32.8249 2.10882 33.0991 2.10882 33.0991 2.10882C33.0991 2.10882 33.0991 2.34731 33.0991 2.8243C33.0991 3.30129 33.0991 3.53978 33.0991 3.53978C33.0991 3.53978 32.8249 3.53978 32.2766 3.53978ZM32.2766 2.10882C31.7283 2.10882 31.4541 2.10882 31.4541 2.10882C31.4541 2.10882 31.4541 1.87032 31.4541 1.39334C31.4541 0.91635 31.4541 0.677856 31.4541 0.677856C31.4541 0.677856 31.7283 0.677856 32.2766 0.677856C32.8249 0.677856 33.0991 0.677856 33.0991 0.677856C33.0991 0.677856 33.0991 0.91635 33.0991 1.39334C33.0991 1.87032 33.0991 2.10882 33.0991 2.10882C33.0991 2.10882 32.8249 2.10882 32.2766 2.10882ZM28.9868 14.9874C28.4385 14.9874 28.1643 14.9874 28.1643 14.9874C28.1643 14.9874 28.1643 14.749 28.1643 14.272C28.1643 13.795 28.1643 13.5565 28.1643 13.5565C28.1643 13.5565 28.4385 13.5565 28.9868 13.5565C29.5351 13.5565 29.8092 13.5565 29.8092 13.5565C29.8092 13.5565 29.8092 13.795 29.8092 14.272C29.8092 14.749 29.8092 14.9874 29.8092 14.9874C29.8092 14.9874 29.5351 14.9874 28.9868 14.9874ZM28.9868 13.5565C28.4385 13.5565 28.1643 13.5565 28.1643 13.5565C28.1643 13.5565 28.1643 13.318 28.1643 12.841C28.1643 12.364 28.1643 12.1255 28.1643 12.1255C28.1643 12.1255 28.4385 12.1255 28.9868 12.1255C29.5351 12.1255 29.8092 12.1255 29.8092 12.1255C29.8092 12.1255 29.8092 12.364 29.8092 12.841C29.8092 13.318 29.8092 13.5565 29.8092 13.5565C29.8092 13.5565 29.5351 13.5565 28.9868 13.5565ZM30.6317 14.9874C30.0834 14.9874 29.8092 14.9874 29.8092 14.9874C29.8092 14.9874 29.8092 14.749 29.8092 14.272C29.8092 13.795 29.8092 13.5565 29.8092 13.5565C29.8092 13.5565 30.0834 13.5565 30.6317 13.5565C31.18 13.5565 31.4541 13.5565 31.4541 13.5565C31.4541 13.5565 31.4541 13.795 31.4541 14.272C31.4541 14.749 31.4541 14.9874 31.4541 14.9874C31.4541 14.9874 31.18 14.9874 30.6317 14.9874ZM30.6317 13.5565C30.0834 13.5565 29.8092 13.5565 29.8092 13.5565C29.8092 13.5565 29.8092 13.318 29.8092 12.841C29.8092 12.364 29.8092 12.1255 29.8092 12.1255C29.8092 12.1255 30.0834 12.1255 30.6317 12.1255C31.18 12.1255 31.4541 12.1255 31.4541 12.1255C31.4541 12.1255 31.4541 12.364 31.4541 12.841C31.4541 13.318 31.4541 13.5565 31.4541 13.5565C31.4541 13.5565 31.18 13.5565 30.6317 13.5565Z" fill="#374143"/>
<path d="M35.3256 26.4351C34.6971 26.4351 34.3828 26.4351 34.3828 26.4351C34.3828 26.4351 34.3828 26.2343 34.3828 25.8326C34.3828 25.4435 34.3828 25.249 34.3828 25.249C34.3828 25.249 34.4898 25.0105 34.7038 24.5335C34.9311 24.0314 35.3457 23.1276 35.9475 21.8222C36.5627 20.5042 37.024 19.5188 37.3316 18.8661C37.6392 18.2134 37.9468 17.5732 38.2544 16.9456C38.562 16.318 38.8094 15.7971 38.9966 15.3828C39.3711 14.5921 39.5583 14.1967 39.5583 14.1967C39.5583 14.1967 39.799 14.2971 40.2805 14.4979C40.7485 14.6987 40.9826 14.7992 40.9826 14.7992C40.9826 14.7992 40.7953 15.2008 40.4209 16.0042C40.0598 16.7573 39.7723 17.3661 39.5583 17.8305C39.3443 18.2824 39.1036 18.7845 38.8361 19.3368C38.3814 20.2782 37.9468 21.1757 37.5322 22.0293C37.131 22.8703 36.7499 23.6736 36.3888 24.4393C36.2016 24.8159 36.108 25.0042 36.108 25.0042C36.108 25.0042 36.5961 25.0042 37.5724 25.0042C38.0404 25.0042 38.4817 25.0042 38.8963 25.0042C39.3243 25.0042 39.9127 25.0042 40.6616 25.0042C41.4105 25.0042 42.2196 25.0042 43.0889 25.0042C43.9581 25.0042 44.6402 25.0042 45.135 25.0042C46.0711 25.0042 46.5392 25.0042 46.5392 25.0042C46.5392 25.0042 46.5392 25.2427 46.5392 25.7197C46.5392 26.1967 46.5392 26.4351 46.5392 26.4351C46.5392 26.4351 46.0711 26.4351 45.135 26.4351C45.135 26.4351 44.4262 26.4351 43.0086 26.4351C41.6044 26.4351 40.4142 26.4351 39.4379 26.4351C38.5152 26.4351 37.666 26.4351 36.8903 26.4351C36.1147 26.4351 35.5931 26.4351 35.3256 26.4351ZM42.8883 12.5962C42.4202 12.3954 42.1862 12.295 42.1862 12.295C42.1862 12.295 42.3734 11.8933 42.7479 11.09C42.8682 10.8264 43.0956 10.3494 43.4299 9.65903C43.7642 8.9561 44.0651 8.32848 44.3326 7.77618C44.7873 6.83476 45.2152 5.94354 45.6164 5.10254C46.031 4.24898 46.4188 3.43936 46.7799 2.67367C46.9671 2.2971 47.0608 2.10882 47.0608 2.10882C47.0608 2.10882 46.5726 2.10882 45.5964 2.10882C45.1283 2.10882 44.6803 2.10882 44.2524 2.10882C43.8378 2.10882 43.256 2.10882 42.5071 2.10882C41.7582 2.10882 41.2032 2.10882 40.8421 2.10882C40.4944 2.10882 39.9127 2.10882 39.0969 2.10882C38.1608 2.10882 37.6927 2.10882 37.6927 2.10882C37.6927 2.10882 37.6927 1.87032 37.6927 1.39334C37.6927 0.91635 37.6927 0.677856 37.6927 0.677856C37.6927 0.677856 38.1608 0.677856 39.0969 0.677856C39.0969 0.677856 39.6252 0.677856 40.6817 0.677856C41.7382 0.677856 42.7545 0.677856 43.7308 0.677856C44.6536 0.677856 45.5028 0.677856 46.2784 0.677856C47.0541 0.677856 47.5756 0.677856 47.8431 0.677856C48.4716 0.677856 48.7859 0.677856 48.7859 0.677856C48.7859 0.677856 48.7859 0.878693 48.7859 1.28036C48.7859 1.66949 48.7859 1.86405 48.7859 1.86405C48.7859 1.86405 48.6789 2.10254 48.465 2.57953C48.2376 3.08162 47.8164 3.99166 47.2012 5.30965C46.5994 6.61509 46.1447 7.59417 45.8371 8.24689C45.5295 8.89961 45.2219 9.53978 44.9143 10.1674C44.6067 10.7824 44.3593 11.2971 44.1721 11.7113C43.7977 12.5021 43.6104 12.8975 43.6104 12.8975C43.6104 12.8975 43.3697 12.7971 42.8883 12.5962ZM37.5724 25.0042C36.5961 25.0042 36.108 25.0042 36.108 25.0042C36.108 25.0042 36.2016 24.8159 36.3888 24.4393C36.7499 23.6736 37.131 22.8703 37.5322 22.0293C37.9468 21.1757 38.3814 20.2782 38.8361 19.3368C39.1571 18.659 39.4112 18.1255 39.5984 17.7364C39.7857 17.3347 40.0598 16.7573 40.4209 16.0042C40.7953 15.2008 40.9826 14.7992 40.9826 14.7992C40.9826 14.7992 41.2233 14.8996 41.7047 15.1004C42.1728 15.3013 42.4068 15.4017 42.4068 15.4017C42.4068 15.4017 42.2263 15.7971 41.8652 16.5879C41.8652 16.5879 41.7382 16.864 41.4841 17.4163C41.2433 17.9686 40.889 18.7343 40.4209 19.7134C40.0598 20.5167 39.7188 21.251 39.3978 21.9163C39.0902 22.569 38.9097 22.9456 38.8562 23.046C38.669 23.3975 38.5754 23.5732 38.5754 23.5732C38.5754 23.5732 38.7893 23.5732 39.2173 23.5732C39.5784 23.5732 39.8659 23.5732 40.0799 23.5732C40.3072 23.5732 40.6482 23.5732 41.1029 23.5732C41.464 23.5732 42.0992 23.5732 43.0086 23.5732C43.9314 23.5732 44.6402 23.5732 45.135 23.5732C46.0711 23.5732 46.5392 23.5732 46.5392 23.5732C46.5392 23.5732 46.5392 23.8117 46.5392 24.2887C46.5392 24.7657 46.5392 25.0042 46.5392 25.0042C46.5392 25.0042 46.0711 25.0042 45.135 25.0042C44.6669 25.0042 43.9849 25.0042 43.0889 25.0042C42.2062 25.0042 41.3905 25.0042 40.6415 25.0042C39.692 25.0042 39.0301 25.0042 38.6556 25.0042C38.2945 25.0042 37.9334 25.0042 37.5724 25.0042ZM41.464 11.9937C40.9826 11.7929 40.7418 11.6925 40.7418 11.6925C40.7418 11.6925 40.9291 11.2971 41.3035 10.5063C41.3035 10.5063 41.4774 10.1234 41.8251 9.35777C42.1728 8.57953 42.4804 7.92681 42.7479 7.39961C43.1491 6.59626 43.4968 5.86823 43.791 5.21551C44.0852 4.55024 44.259 4.16739 44.3125 4.06698C44.4998 3.71551 44.5934 3.53978 44.5934 3.53978C44.5934 3.53978 44.3794 3.53978 43.9515 3.53978C43.5904 3.53978 43.2962 3.53978 43.0688 3.53978C42.8548 3.53978 42.5205 3.53978 42.0658 3.53978C41.7047 3.53978 41.2433 3.53978 40.6817 3.53978C40.12 3.53978 39.5917 3.53978 39.0969 3.53978C38.1608 3.53978 37.6927 3.53978 37.6927 3.53978C37.6927 3.53978 37.6927 3.30129 37.6927 2.8243C37.6927 2.34731 37.6927 2.10882 37.6927 2.10882C37.6927 2.10882 38.1608 2.10882 39.0969 2.10882C39.5249 2.10882 40.013 2.10882 40.5613 2.10882C41.123 2.10882 41.7783 2.10882 42.5272 2.10882C43.4767 2.10882 44.132 2.10882 44.4931 2.10882C44.8675 2.10882 45.2353 2.10882 45.5964 2.10882C46.5726 2.10882 47.0608 2.10882 47.0608 2.10882C47.0608 2.10882 46.9671 2.2971 46.7799 2.67367C46.4188 3.43936 46.031 4.24898 45.6164 5.10254C45.2152 5.9561 44.7873 6.84731 44.3326 7.77618C44.0651 8.32848 43.7642 8.9561 43.4299 9.65903C43.0956 10.3494 42.8682 10.8264 42.7479 11.09C42.3734 11.8933 42.1862 12.295 42.1862 12.295C42.1862 12.295 41.9454 12.1946 41.464 11.9937ZM40.2805 14.4979C39.799 14.2971 39.5583 14.1967 39.5583 14.1967C39.5583 14.1967 39.6586 13.9895 39.8592 13.5753C40.0598 13.1611 40.1601 12.954 40.1601 12.954C40.1601 12.954 40.3941 13.0544 40.8622 13.2552C41.3436 13.4561 41.5844 13.5565 41.5844 13.5565C41.5844 13.5565 41.4841 13.7636 41.2835 14.1778C41.0829 14.5921 40.9826 14.7992 40.9826 14.7992C40.9826 14.7992 40.7485 14.6987 40.2805 14.4979ZM41.7047 15.1004C41.2233 14.8996 40.9826 14.7992 40.9826 14.7992C40.9826 14.7992 41.0829 14.5921 41.2835 14.1778C41.4841 13.7636 41.5844 13.5565 41.5844 13.5565C41.5844 13.5565 41.8251 13.6569 42.3065 13.8577C42.7746 14.0586 43.0086 14.159 43.0086 14.159C43.0086 14.159 42.9083 14.3598 42.7077 14.7615C42.5071 15.1883 42.4068 15.4017 42.4068 15.4017C42.4068 15.4017 42.1728 15.3013 41.7047 15.1004ZM40.8622 13.2552C40.3941 13.0544 40.1601 12.954 40.1601 12.954C40.1601 12.954 40.2537 12.7469 40.4409 12.3326C40.6415 11.9059 40.7418 11.6925 40.7418 11.6925C40.7418 11.6925 40.9826 11.7929 41.464 11.9937C41.9454 12.1946 42.1862 12.295 42.1862 12.295C42.1862 12.295 42.0859 12.5084 41.8853 12.9351C41.6847 13.3494 41.5844 13.5565 41.5844 13.5565C41.5844 13.5565 41.3436 13.4561 40.8622 13.2552ZM42.3065 13.8577C41.8251 13.6569 41.5844 13.5565 41.5844 13.5565C41.5844 13.5565 41.6847 13.3494 41.8853 12.9351C42.0859 12.5084 42.1862 12.295 42.1862 12.295C42.1862 12.295 42.4202 12.3954 42.8883 12.5962C43.3697 12.7971 43.6104 12.8975 43.6104 12.8975C43.6104 12.8975 43.5101 13.1109 43.3095 13.5377C43.1089 13.9519 43.0086 14.159 43.0086 14.159C43.0086 14.159 42.7746 14.0586 42.3065 13.8577ZM35.2253 3.53978C34.677 3.53978 34.4029 3.53978 34.4029 3.53978C34.4029 3.53978 34.4029 3.30129 34.4029 2.8243C34.4029 2.34731 34.4029 2.10882 34.4029 2.10882C34.4029 2.10882 34.677 2.10882 35.2253 2.10882C35.7736 2.10882 36.0478 2.10882 36.0478 2.10882C36.0478 2.10882 36.0478 2.34731 36.0478 2.8243C36.0478 3.30129 36.0478 3.53978 36.0478 3.53978C36.0478 3.53978 35.7736 3.53978 35.2253 3.53978ZM35.2253 2.10882C34.677 2.10882 34.4029 2.10882 34.4029 2.10882C34.4029 2.10882 34.4029 1.87032 34.4029 1.39334C34.4029 0.91635 34.4029 0.677856 34.4029 0.677856C34.4029 0.677856 34.677 0.677856 35.2253 0.677856C35.7736 0.677856 36.0478 0.677856 36.0478 0.677856C36.0478 0.677856 36.0478 0.91635 36.0478 1.39334C36.0478 1.87032 36.0478 2.10882 36.0478 2.10882C36.0478 2.10882 35.7736 2.10882 35.2253 2.10882ZM36.8703 3.53978C36.3219 3.53978 36.0478 3.53978 36.0478 3.53978C36.0478 3.53978 36.0478 3.30129 36.0478 2.8243C36.0478 2.34731 36.0478 2.10882 36.0478 2.10882C36.0478 2.10882 36.3219 2.10882 36.8703 2.10882C37.4186 2.10882 37.6927 2.10882 37.6927 2.10882C37.6927 2.10882 37.6927 2.34731 37.6927 2.8243C37.6927 3.30129 37.6927 3.53978 37.6927 3.53978C37.6927 3.53978 37.4186 3.53978 36.8703 3.53978ZM36.8703 2.10882C36.3219 2.10882 36.0478 2.10882 36.0478 2.10882C36.0478 2.10882 36.0478 1.87032 36.0478 1.39334C36.0478 0.91635 36.0478 0.677856 36.0478 0.677856C36.0478 0.677856 36.3219 0.677856 36.8703 0.677856C37.4186 0.677856 37.6927 0.677856 37.6927 0.677856C37.6927 0.677856 37.6927 0.91635 37.6927 1.39334C37.6927 1.87032 37.6927 2.10882 37.6927 2.10882C37.6927 2.10882 37.4186 2.10882 36.8703 2.10882ZM47.3617 26.4351C46.8134 26.4351 46.5392 26.4351 46.5392 26.4351C46.5392 26.4351 46.5392 26.1967 46.5392 25.7197C46.5392 25.2427 46.5392 25.0042 46.5392 25.0042C46.5392 25.0042 46.8134 25.0042 47.3617 25.0042C47.91 25.0042 48.1841 25.0042 48.1841 25.0042C48.1841 25.0042 48.1841 25.2427 48.1841 25.7197C48.1841 26.1967 48.1841 26.4351 48.1841 26.4351C48.1841 26.4351 47.91 26.4351 47.3617 26.4351ZM47.3617 25.0042C46.8134 25.0042 46.5392 25.0042 46.5392 25.0042C46.5392 25.0042 46.5392 24.7657 46.5392 24.2887C46.5392 23.8117 46.5392 23.5732 46.5392 23.5732C46.5392 23.5732 46.8134 23.5732 47.3617 23.5732C47.91 23.5732 48.1841 23.5732 48.1841 23.5732C48.1841 23.5732 48.1841 23.8117 48.1841 24.2887C48.1841 24.7657 48.1841 25.0042 48.1841 25.0042C48.1841 25.0042 47.91 25.0042 47.3617 25.0042ZM49.0066 26.4351C48.4583 26.4351 48.1841 26.4351 48.1841 26.4351C48.1841 26.4351 48.1841 26.1967 48.1841 25.7197C48.1841 25.2427 48.1841 25.0042 48.1841 25.0042C48.1841 25.0042 48.4583 25.0042 49.0066 25.0042C49.5549 25.0042 49.829 25.0042 49.829 25.0042C49.829 25.0042 49.829 25.2427 49.829 25.7197C49.829 26.1967 49.829 26.4351 49.829 26.4351C49.829 26.4351 49.5549 26.4351 49.0066 26.4351ZM49.0066 25.0042C48.4583 25.0042 48.1841 25.0042 48.1841 25.0042C48.1841 25.0042 48.1841 24.7657 48.1841 24.2887C48.1841 23.8117 48.1841 23.5732 48.1841 23.5732C48.1841 23.5732 48.4583 23.5732 49.0066 23.5732C49.5549 23.5732 49.829 23.5732 49.829 23.5732C49.829 23.5732 49.829 23.8117 49.829 24.2887C49.829 24.7657 49.829 25.0042 49.829 25.0042C49.829 25.0042 49.5549 25.0042 49.0066 25.0042Z" fill="#374143"/>
<path d="M52.8383 14.9874C52.2899 14.9874 52.0158 14.9874 52.0158 14.9874C52.0158 14.9874 52.0024 14.749 51.9757 14.272C51.9623 13.795 51.9556 13.5565 51.9556 13.5565C51.9556 13.5565 52.2365 13.5565 52.7981 13.5565C53.3331 13.5565 53.6005 13.5565 53.6005 13.5565C53.6005 13.5565 53.6005 13.795 53.6005 14.272C53.6273 14.749 53.6407 14.9874 53.6407 14.9874C53.6407 14.9874 53.3732 14.9874 52.8383 14.9874ZM52.7981 13.5565C52.2365 13.5565 51.9556 13.5565 51.9556 13.5565C51.9556 13.5565 51.9623 13.318 51.9757 12.841C52.0024 12.364 52.0158 12.1255 52.0158 12.1255C52.0158 12.1255 52.2766 12.1255 52.7981 12.1255C53.3598 12.1255 53.6407 12.1255 53.6407 12.1255C53.6407 12.1255 53.6273 12.364 53.6005 12.841C53.6005 13.318 53.6005 13.5565 53.6005 13.5565C53.6005 13.5565 53.3331 13.5565 52.7981 13.5565ZM54.5434 14.9874C53.9416 14.9874 53.6407 14.9874 53.6407 14.9874C53.6407 14.9874 53.6273 14.749 53.6005 14.272C53.6005 13.795 53.6005 13.5565 53.6005 13.5565C53.6005 13.5565 53.9014 13.5565 54.5032 13.5565C55.0649 13.5565 55.3458 13.5565 55.3458 13.5565C55.3458 13.5565 55.3524 13.795 55.3658 14.272C55.4059 14.749 55.426 14.9874 55.426 14.9874C55.426 14.9874 55.1318 14.9874 54.5434 14.9874ZM54.5032 13.5565C53.9014 13.5565 53.6005 13.5565 53.6005 13.5565C53.6005 13.5565 53.6005 13.318 53.6005 12.841C53.6273 12.364 53.6407 12.1255 53.6407 12.1255C53.6407 12.1255 53.9282 12.1255 54.5032 12.1255C55.1184 12.1255 55.426 12.1255 55.426 12.1255C55.426 12.1255 55.4059 12.364 55.3658 12.841C55.3524 13.318 55.3458 13.5565 55.3458 13.5565C55.3458 13.5565 55.0649 13.5565 54.5032 13.5565ZM52.8383 12.1255C52.2899 12.1255 52.0158 12.1255 52.0158 12.1255C52.0158 12.1255 52.0425 11.8619 52.096 11.3347C52.2833 10.0293 52.7112 8.72385 53.3799 7.41841C54.0619 6.10042 54.9512 4.93933 56.0479 3.93515C57.1578 2.91841 58.3815 2.07741 59.7188 1.41213C61.0696 0.73431 62.5807 0.301255 64.2524 0.112971C64.8275 0.0753139 65.115 0.0564854 65.115 0.0564854C65.115 0.0564854 65.115 0.307531 65.115 0.809624C65.115 1.28661 65.115 1.5251 65.115 1.5251C65.115 1.5251 64.8342 1.55021 64.2725 1.60042C62.8683 1.7636 61.5777 2.13389 60.4009 2.7113C59.224 3.27615 58.1675 3.99163 57.2314 4.85774C56.2953 5.72385 55.5397 6.73431 54.9646 7.88912C54.3896 9.03138 53.9951 10.1925 53.7811 11.3724C53.7142 11.8745 53.6808 12.1255 53.6808 12.1255C53.6808 12.1255 53.3999 12.1255 52.8383 12.1255ZM54.5434 12.1255C53.9683 12.1255 53.6808 12.1255 53.6808 12.1255C53.6808 12.1255 53.7142 11.8745 53.7811 11.3724C53.9951 10.1925 54.3896 9.03138 54.9646 7.88912C55.5397 6.73431 56.2953 5.72385 57.2314 4.85774C58.1675 3.99163 59.224 3.27615 60.4009 2.7113C61.5777 2.13389 62.8683 1.7636 64.2725 1.60042C64.8342 1.55021 65.115 1.5251 65.115 1.5251C65.115 1.5251 65.115 1.75732 65.115 2.22176C65.115 2.74895 65.115 3.01255 65.115 3.01255C65.115 3.01255 64.8408 3.04393 64.2925 3.10669C63.1023 3.29498 61.9923 3.62762 60.9626 4.1046C59.9328 4.56904 59.0435 5.16527 58.2946 5.89331C57.5457 6.62134 56.9439 7.4749 56.4892 8.45398C56.0345 9.4205 55.7202 10.4121 55.5464 11.4289C55.4661 11.8933 55.426 12.1255 55.426 12.1255C55.426 12.1255 55.1318 12.1255 54.5434 12.1255ZM65.9776 2.93724C65.4025 2.98745 65.115 3.01255 65.115 3.01255C65.115 3.01255 65.115 2.74268 65.115 2.20293C65.115 1.75105 65.115 1.5251 65.115 1.5251C65.115 1.5251 65.3958 1.5 65.9575 1.44979C66.4925 1.43724 66.7599 1.43096 66.7599 1.43096C66.7599 1.43096 66.7599 1.67573 66.7599 2.16527C66.7599 2.66736 66.7599 2.91841 66.7599 2.91841C66.7599 2.91841 66.4991 2.92469 65.9776 2.93724ZM65.9575 1.44979C65.3958 1.5 65.115 1.5251 65.115 1.5251C65.115 1.5251 65.115 1.29289 65.115 0.828452C65.115 0.313808 65.115 0.0564854 65.115 0.0564854C65.115 0.0564854 65.3892 0.0439331 65.9375 0.0188285C66.4858 0.0062762 66.7599 0 66.7599 0C66.7599 0 66.7599 0.251046 66.7599 0.753138C66.7599 1.20502 66.7599 1.43096 66.7599 1.43096C66.7599 1.43096 66.4925 1.43724 65.9575 1.44979ZM67.5423 2.93724C67.0207 2.92469 66.7599 2.91841 66.7599 2.91841C66.7599 2.91841 66.7599 2.66736 66.7599 2.16527C66.7599 1.67573 66.7599 1.43096 66.7599 1.43096C66.7599 1.43096 67.0274 1.43724 67.5623 1.44979C68.124 1.48745 68.4048 1.50628 68.4048 1.50628C68.4048 1.50628 68.4048 1.74477 68.4048 2.22176C68.4048 2.74895 68.4048 3.01255 68.4048 3.01255C68.4048 3.01255 68.1173 2.98745 67.5423 2.93724ZM67.5623 1.44979C67.0274 1.43724 66.7599 1.43096 66.7599 1.43096C66.7599 1.43096 66.7599 1.20502 66.7599 0.753138C66.7599 0.251046 66.7599 0 66.7599 0C66.7599 0 67.0341 0.0062762 67.5824 0.0188285C68.1307 0.0564854 68.4048 0.0753139 68.4048 0.0753139C68.4048 0.0753139 68.4048 0.320084 68.4048 0.809624C68.4048 1.27406 68.4048 1.50628 68.4048 1.50628C68.4048 1.50628 68.124 1.48745 67.5623 1.44979ZM80.6816 12.1255C80.0932 12.1255 79.799 12.1255 79.799 12.1255C79.799 12.1255 79.7655 11.8808 79.6987 11.3912C79.4446 10.0481 78.9631 8.79916 78.2543 7.64435C77.5455 6.48954 76.6562 5.46025 75.5863 4.55649C74.7572 3.841 73.8612 3.23222 72.8983 2.73013C71.9354 2.22803 70.7519 1.85774 69.3477 1.61925C68.7191 1.54393 68.4048 1.50628 68.4048 1.50628C68.4048 1.50628 68.4048 1.31172 68.4048 0.922594C68.4048 0.357741 68.4048 0.0753139 68.4048 0.0753139C68.4048 0.0753139 68.7258 0.106695 69.3677 0.169456C70.7184 0.345188 72.0023 0.702929 73.2193 1.24268C74.4362 1.76987 75.5863 2.47908 76.6696 3.37029C77.9133 4.37448 78.9564 5.56067 79.799 6.92887C80.6548 8.28452 81.1965 9.74686 81.4238 11.3159C81.4773 11.8556 81.5041 12.1255 81.5041 12.1255C81.5041 12.1255 81.2299 12.1255 80.6816 12.1255ZM78.9765 12.1255C78.3881 12.1255 78.0938 12.1255 78.0938 12.1255C78.0938 12.1255 78.0537 11.8996 77.9735 11.4477C77.7729 10.3556 77.3784 9.32008 76.7899 8.341C76.2149 7.34937 75.486 6.46444 74.6034 5.68619C73.7341 4.9205 72.8983 4.34937 72.0959 3.9728C71.3069 3.58368 70.3507 3.29498 69.2273 3.10669C68.679 3.04393 68.4048 3.01255 68.4048 3.01255C68.4048 3.01255 68.4048 2.76151 68.4048 2.25941C68.4048 1.75732 68.4048 1.50628 68.4048 1.50628C68.4048 1.50628 68.7191 1.54393 69.3477 1.61925C70.7519 1.85774 71.9354 2.22803 72.8983 2.73013C73.8612 3.23222 74.7572 3.841 75.5863 4.55649C76.6562 5.46025 77.5455 6.48954 78.2543 7.64435C78.9631 8.79916 79.4446 10.0481 79.6987 11.3912C79.7655 11.8808 79.799 12.1255 79.799 12.1255C79.799 12.1255 79.5248 12.1255 78.9765 12.1255ZM78.9765 14.9874C78.3881 14.9874 78.0938 14.9874 78.0938 14.9874C78.0938 14.9874 78.1139 14.749 78.154 14.272C78.1674 13.795 78.1741 13.5565 78.1741 13.5565C78.1741 13.5565 78.4549 13.5565 79.0166 13.5565C79.5917 13.5565 79.8792 13.5565 79.8792 13.5565C79.8792 13.5565 79.8792 13.795 79.8792 14.272C79.8524 14.749 79.8391 14.9874 79.8391 14.9874C79.8391 14.9874 79.5515 14.9874 78.9765 14.9874ZM79.0166 13.5565C78.4549 13.5565 78.1741 13.5565 78.1741 13.5565C78.1741 13.5565 78.1674 13.318 78.154 12.841C78.1139 12.364 78.0938 12.1255 78.0938 12.1255C78.0938 12.1255 78.4014 12.1255 79.0166 12.1255C79.5783 12.1255 79.8591 12.1255 79.8591 12.1255C79.8591 12.1255 79.8658 12.364 79.8792 12.841C79.8792 13.318 79.8792 13.5565 79.8792 13.5565C79.8792 13.5565 79.5917 13.5565 79.0166 13.5565ZM80.6816 14.9874C80.1199 14.9874 79.8391 14.9874 79.8391 14.9874C79.8391 14.9874 79.8524 14.749 79.8792 14.272C79.8792 13.795 79.8792 13.5565 79.8792 13.5565C79.8792 13.5565 80.16 13.5565 80.7217 13.5565C81.2834 13.5565 81.5642 13.5565 81.5642 13.5565C81.5642 13.5565 81.5575 13.795 81.5442 14.272C81.5174 14.749 81.5041 14.9874 81.5041 14.9874C81.5041 14.9874 81.2299 14.9874 80.6816 14.9874ZM80.7217 13.5565C80.16 13.5565 79.8792 13.5565 79.8792 13.5565C79.8792 13.5565 79.8792 13.318 79.8792 12.841C79.8658 12.364 79.8591 12.1255 79.8591 12.1255C79.8591 12.1255 80.1467 12.1255 80.7217 12.1255C81.2433 12.1255 81.5041 12.1255 81.5041 12.1255C81.5041 12.1255 81.5174 12.364 81.5442 12.841C81.5575 13.318 81.5642 13.5565 81.5642 13.5565C81.5642 13.5565 81.2834 13.5565 80.7217 13.5565ZM69.4279 26.8305C68.7459 26.8808 68.4048 26.9059 68.4048 26.9059C68.4048 26.9059 68.4048 26.6799 68.4048 26.228C68.4048 25.7636 68.4048 25.5314 68.4048 25.5314C68.4048 25.5314 68.7258 25.4937 69.3677 25.4184C70.5446 25.2301 71.7348 24.8473 72.9384 24.2699C74.1554 23.6925 75.2319 22.977 76.1681 22.1234C77.1042 21.2699 77.8799 20.2908 78.495 19.1862C79.1102 18.069 79.5248 16.9142 79.7388 15.7218C79.8056 15.2322 79.8391 14.9874 79.8391 14.9874C79.8391 14.9874 80.1199 14.9874 80.6816 14.9874C81.2299 14.9874 81.5041 14.9874 81.5041 14.9874C81.5041 14.9874 81.4773 15.251 81.4238 15.7782C81.2366 17.0837 80.7819 18.3766 80.0597 19.6569C79.3509 20.9247 78.4482 22.0607 77.3516 23.0649C76.2416 24.0816 74.9712 24.9289 73.5402 25.6067C72.1093 26.272 70.7385 26.6799 69.4279 26.8305ZM69.3677 25.4184C68.7258 25.4937 68.4048 25.5314 68.4048 25.5314C68.4048 25.5314 68.4048 25.2992 68.4048 24.8347C68.4048 24.3452 68.4048 24.1004 68.4048 24.1004C68.4048 24.1004 68.679 24.0753 69.2273 24.0251C70.4175 23.8243 71.5075 23.4728 72.4971 22.9707C73.4867 22.4561 74.356 21.8347 75.1049 21.1067C75.8538 20.3787 76.4757 19.5502 76.9705 18.6213C77.4653 17.6799 77.7996 16.7008 77.9735 15.6841C78.0537 15.2197 78.0938 14.9874 78.0938 14.9874C78.0938 14.9874 78.3881 14.9874 78.9765 14.9874C79.5515 14.9874 79.8391 14.9874 79.8391 14.9874C79.8391 14.9874 79.8056 15.2322 79.7388 15.7218C79.5248 16.9142 79.1102 18.069 78.495 19.1862C77.8799 20.2908 77.1042 21.2699 76.1681 22.1234C75.2319 22.977 74.1554 23.6925 72.9384 24.2699C71.7348 24.8473 70.5446 25.2301 69.3677 25.4184ZM65.9375 26.9623C65.3892 26.9247 65.115 26.9059 65.115 26.9059C65.115 26.9059 65.115 26.6674 65.115 26.1904C65.115 25.7259 65.115 25.4937 65.115 25.4937C65.115 25.4937 65.3958 25.5251 65.9575 25.5879C66.4925 25.6004 66.7599 25.6067 66.7599 25.6067C66.7599 25.6067 66.7599 25.8264 66.7599 26.2657C66.7599 26.7427 66.7599 26.9812 66.7599 26.9812C66.7599 26.9812 66.4858 26.9749 65.9375 26.9623ZM65.9575 25.5879C65.3958 25.5251 65.115 25.4937 65.115 25.4937C65.115 25.4937 65.115 25.2866 65.115 24.8724C65.115 24.3577 65.115 24.1004 65.115 24.1004C65.115 24.1004 65.4025 24.1255 65.9776 24.1757C66.4991 24.1883 66.7599 24.1946 66.7599 24.1946C66.7599 24.1946 66.7599 24.4331 66.7599 24.91C66.7599 25.3745 66.7599 25.6067 66.7599 25.6067C66.7599 25.6067 66.4925 25.6004 65.9575 25.5879ZM67.5824 26.9623C67.0341 26.9749 66.7599 26.9812 66.7599 26.9812C66.7599 26.9812 66.7599 26.7427 66.7599 26.2657C66.7599 25.8264 66.7599 25.6067 66.7599 25.6067C66.7599 25.6067 67.0274 25.6004 67.5623 25.5879C68.124 25.5377 68.4048 25.5126 68.4048 25.5126C68.4048 25.5126 68.4048 25.7385 68.4048 26.1904C68.4048 26.6674 68.4048 26.9059 68.4048 26.9059C68.4048 26.9059 68.1307 26.9247 67.5824 26.9623ZM67.5623 25.5879C67.0274 25.6004 66.7599 25.6067 66.7599 25.6067C66.7599 25.6067 66.7599 25.3745 66.7599 24.91C66.7599 24.4331 66.7599 24.1946 66.7599 24.1946C66.7599 24.1946 67.0207 24.1883 67.5423 24.1757C68.1173 24.1255 68.4048 24.1004 68.4048 24.1004C68.4048 24.1004 68.4048 24.3515 68.4048 24.8536C68.4048 25.2929 68.4048 25.5126 68.4048 25.5126C68.4048 25.5126 68.124 25.5377 67.5623 25.5879ZM64.2524 26.8117C62.8616 26.5983 61.5376 26.2469 60.2805 25.7573C59.0234 25.2678 57.8533 24.5837 56.77 23.705C55.5263 22.7134 54.4899 21.5335 53.6607 20.1653C52.8449 18.7971 52.3234 17.3347 52.096 15.7782C52.0425 15.251 52.0158 14.9874 52.0158 14.9874C52.0158 14.9874 52.2899 14.9874 52.8383 14.9874C53.4267 14.9874 53.7209 14.9874 53.7209 14.9874C53.7209 14.9874 53.7543 15.2322 53.8212 15.7218C54.0753 17.0649 54.5434 18.3264 55.2254 19.5063C55.9074 20.6862 56.7834 21.728 57.8533 22.6318C58.6824 23.3473 59.6185 23.9247 60.6617 24.364C61.7048 24.8033 62.875 25.1423 64.1722 25.3808C64.8007 25.4686 65.115 25.5126 65.115 25.5126C65.115 25.5126 65.115 25.7385 65.115 26.1904C65.115 26.6674 65.115 26.9059 65.115 26.9059C65.115 26.9059 64.8275 26.8745 64.2524 26.8117ZM64.1722 25.3808C62.875 25.1423 61.7048 24.8033 60.6617 24.364C59.6185 23.9247 58.6824 23.3473 57.8533 22.6318C56.7834 21.728 55.9074 20.6862 55.2254 19.5063C54.5434 18.3264 54.0753 17.0649 53.8212 15.7218C53.7543 15.2322 53.7209 14.9874 53.7209 14.9874C53.7209 14.9874 53.995 14.9874 54.5434 14.9874C55.1318 14.9874 55.426 14.9874 55.426 14.9874C55.426 14.9874 55.4661 15.2134 55.5464 15.6653C55.747 16.7573 56.1214 17.8117 56.6697 18.8285C57.2314 19.8326 57.9536 20.7239 58.8362 21.5021C59.7055 22.2678 60.548 22.8389 61.3638 23.2155C62.1795 23.5795 63.1625 23.8494 64.3126 24.0251C64.8475 24.0753 65.115 24.1004 65.115 24.1004C65.115 24.1004 65.115 24.3515 65.115 24.8536C65.115 25.2929 65.115 25.5126 65.115 25.5126C65.115 25.5126 64.8007 25.4686 64.1722 25.3808Z" fill="#374143"/>
<path d="M91.0525 26.4351C90.21 26.4351 89.7887 26.4351 89.7887 26.4351C89.7887 26.4351 89.7887 26.1967 89.7887 25.7197C89.7887 25.2427 89.7887 25.0042 89.7887 25.0042C89.7887 25.0042 90.21 25.0042 91.0525 25.0042C91.9485 25.0042 92.6038 25.0042 93.0184 25.0042C93.433 25.0042 94.0682 25.0042 94.9241 25.0042C95.887 25.0042 96.3684 25.0042 96.3684 25.0042C96.3684 25.0042 96.3684 25.2427 96.3684 25.7197C96.3684 26.1967 96.3684 26.4351 96.3684 26.4351C96.3684 26.4351 95.887 26.4351 94.9241 26.4351C94.0682 26.4351 93.433 26.4351 93.0184 26.4351C92.6038 26.4351 91.9485 26.4351 91.0525 26.4351ZM91.0525 25.0042C90.21 25.0042 89.7887 25.0042 89.7887 25.0042C89.7887 25.0042 89.7887 24.7657 89.7887 24.2887C89.7887 23.8117 89.7887 23.5732 89.7887 23.5732C89.7887 23.5732 90.21 23.5732 91.0525 23.5732C91.9485 23.5732 92.6038 23.5732 93.0184 23.5732C93.433 23.5732 94.0682 23.5732 94.9241 23.5732C95.887 23.5732 96.3684 23.5732 96.3684 23.5732C96.3684 23.5732 96.3684 23.8117 96.3684 24.2887C96.3684 24.7657 96.3684 25.0042 96.3684 25.0042C96.3684 25.0042 95.887 25.0042 94.9241 25.0042C94.0682 25.0042 93.433 25.0042 93.0184 25.0042C92.6038 25.0042 91.9485 25.0042 91.0525 25.0042ZM87.3214 26.4351C86.7731 26.4351 86.4989 26.4351 86.4989 26.4351C86.4989 26.4351 86.4989 26.1967 86.4989 25.7197C86.4989 25.2427 86.4989 25.0042 86.4989 25.0042C86.4989 25.0042 86.7731 25.0042 87.3214 25.0042C87.8697 25.0042 88.1438 25.0042 88.1438 25.0042C88.1438 25.0042 88.1438 25.2427 88.1438 25.7197C88.1438 26.1967 88.1438 26.4351 88.1438 26.4351C88.1438 26.4351 87.8697 26.4351 87.3214 26.4351ZM87.3214 25.0042C86.7731 25.0042 86.4989 25.0042 86.4989 25.0042C86.4989 25.0042 86.4989 24.7657 86.4989 24.2887C86.4989 23.8117 86.4989 23.5732 86.4989 23.5732C86.4989 23.5732 86.7731 23.5732 87.3214 23.5732C87.8697 23.5732 88.1438 23.5732 88.1438 23.5732C88.1438 23.5732 88.1438 23.8117 88.1438 24.2887C88.1438 24.7657 88.1438 25.0042 88.1438 25.0042C88.1438 25.0042 87.8697 25.0042 87.3214 25.0042ZM88.9663 26.4351C88.418 26.4351 88.1438 26.4351 88.1438 26.4351C88.1438 26.4351 88.1438 26.1967 88.1438 25.7197C88.1438 25.2427 88.1438 25.0042 88.1438 25.0042C88.1438 25.0042 88.418 25.0042 88.9663 25.0042C89.5146 25.0042 89.7887 25.0042 89.7887 25.0042C89.7887 25.0042 89.7887 25.2427 89.7887 25.7197C89.7887 26.1967 89.7887 26.4351 89.7887 26.4351C89.7887 26.4351 89.5146 26.4351 88.9663 26.4351ZM88.9663 25.0042C88.418 25.0042 88.1438 25.0042 88.1438 25.0042C88.1438 25.0042 88.1438 24.7657 88.1438 24.2887C88.1438 23.8117 88.1438 23.5732 88.1438 23.5732C88.1438 23.5732 88.418 23.5732 88.9663 23.5732C89.5146 23.5732 89.7887 23.5732 89.7887 23.5732C89.7887 23.5732 89.7887 23.8117 89.7887 24.2887C89.7887 24.7657 89.7887 25.0042 89.7887 25.0042C89.7887 25.0042 89.5146 25.0042 88.9663 25.0042ZM87.3214 3.53978C86.7731 3.53978 86.4989 3.53978 86.4989 3.53978C86.4989 3.53978 86.4989 3.30129 86.4989 2.8243C86.4989 2.34731 86.4989 2.10882 86.4989 2.10882C86.4989 2.10882 86.7731 2.10882 87.3214 2.10882C87.8697 2.10882 88.1438 2.10882 88.1438 2.10882C88.1438 2.10882 88.1438 2.34731 88.1438 2.8243C88.1438 3.30129 88.1438 3.53978 88.1438 3.53978C88.1438 3.53978 87.8697 3.53978 87.3214 3.53978ZM87.3214 2.10882C86.7731 2.10882 86.4989 2.10882 86.4989 2.10882C86.4989 2.10882 86.4989 1.87032 86.4989 1.39334C86.4989 0.91635 86.4989 0.677856 86.4989 0.677856C86.4989 0.677856 86.7731 0.677856 87.3214 0.677856C87.8697 0.677856 88.1438 0.677856 88.1438 0.677856C88.1438 0.677856 88.1438 0.91635 88.1438 1.39334C88.1438 1.87032 88.1438 2.10882 88.1438 2.10882C88.1438 2.10882 87.8697 2.10882 87.3214 2.10882ZM88.9663 3.53978C88.418 3.53978 88.1438 3.53978 88.1438 3.53978C88.1438 3.53978 88.1438 3.30129 88.1438 2.8243C88.1438 2.34731 88.1438 2.10882 88.1438 2.10882C88.1438 2.10882 88.418 2.10882 88.9663 2.10882C89.5146 2.10882 89.7887 2.10882 89.7887 2.10882C89.7887 2.10882 89.7887 2.34731 89.7887 2.8243C89.7887 3.30129 89.7887 3.53978 89.7887 3.53978C89.7887 3.53978 89.5146 3.53978 88.9663 3.53978ZM88.9663 2.10882C88.418 2.10882 88.1438 2.10882 88.1438 2.10882C88.1438 2.10882 88.1438 1.87032 88.1438 1.39334C88.1438 0.91635 88.1438 0.677856 88.1438 0.677856C88.1438 0.677856 88.418 0.677856 88.9663 0.677856C89.5146 0.677856 89.7887 0.677856 89.7887 0.677856C89.7887 0.677856 89.7887 0.91635 89.7887 1.39334C89.7887 1.87032 89.7887 2.10882 89.7887 2.10882C89.7887 2.10882 89.5146 2.10882 88.9663 2.10882ZM87.3214 12.1255C86.7731 12.1255 86.4989 12.1255 86.4989 12.1255C86.4989 12.1255 86.4989 11.887 86.4989 11.41C86.4989 10.9331 86.4989 10.569 86.4989 10.318C86.4989 10.0544 86.4989 9.20087 86.4989 7.75735C86.4989 6.36405 86.4989 5.55442 86.4989 5.32848C86.4989 5.08999 86.4989 4.73225 86.4989 4.25526C86.4989 3.77827 86.4989 3.53978 86.4989 3.53978C86.4989 3.53978 86.7731 3.53978 87.3214 3.53978C87.8697 3.53978 88.1438 3.53978 88.1438 3.53978C88.1438 3.53978 88.1438 3.77827 88.1438 4.25526C88.1438 4.73225 88.1438 5.08999 88.1438 5.32848C88.1438 5.56698 88.1438 6.3766 88.1438 7.75735C88.1438 9.22597 88.1438 10.0858 88.1438 10.3368C88.1438 10.5753 88.1438 10.9331 88.1438 11.41C88.1438 11.887 88.1438 12.1255 88.1438 12.1255C88.1438 12.1255 87.8697 12.1255 87.3214 12.1255ZM88.9663 12.1255C88.418 12.1255 88.1438 12.1255 88.1438 12.1255C88.1438 12.1255 88.1438 11.887 88.1438 11.41C88.1438 10.9331 88.1438 10.569 88.1438 10.318C88.1438 10.0544 88.1438 9.20087 88.1438 7.75735C88.1438 6.36405 88.1438 5.55442 88.1438 5.32848C88.1438 5.08999 88.1438 4.73225 88.1438 4.25526C88.1438 3.77827 88.1438 3.53978 88.1438 3.53978C88.1438 3.53978 88.418 3.53978 88.9663 3.53978C89.5146 3.53978 89.7887 3.53978 89.7887 3.53978C89.7887 3.53978 89.7887 3.77827 89.7887 4.25526C89.7887 4.73225 89.7887 5.08999 89.7887 5.32848C89.7887 5.56698 89.7887 6.3766 89.7887 7.75735C89.7887 9.22597 89.7887 10.0858 89.7887 10.3368C89.7887 10.5753 89.7887 10.9331 89.7887 11.41C89.7887 11.887 89.7887 12.1255 89.7887 12.1255C89.7887 12.1255 89.5146 12.1255 88.9663 12.1255ZM87.3214 23.5732C86.7731 23.5732 86.4989 23.5732 86.4989 23.5732C86.4989 23.5732 86.4989 23.3347 86.4989 22.8577C86.4989 22.3808 86.4989 22.0293 86.4989 21.8033C86.4989 21.5649 86.4989 20.7239 86.4989 19.2803C86.4989 17.887 86.4989 17.0649 86.4989 16.8138C86.4989 16.5502 86.4989 16.1799 86.4989 15.7029C86.4989 15.2259 86.4989 14.9874 86.4989 14.9874C86.4989 14.9874 86.7731 14.9874 87.3214 14.9874C87.8697 14.9874 88.1438 14.9874 88.1438 14.9874C88.1438 14.9874 88.1438 15.2259 88.1438 15.7029C88.1438 16.1799 88.1438 16.5502 88.1438 16.8138C88.1438 17.0774 88.1438 17.8996 88.1438 19.2803C88.1438 20.749 88.1438 21.5962 88.1438 21.8222C88.1438 22.0356 88.1438 22.3808 88.1438 22.8577C88.1438 23.3347 88.1438 23.5732 88.1438 23.5732C88.1438 23.5732 87.8697 23.5732 87.3214 23.5732ZM88.9663 23.5732C88.418 23.5732 88.1438 23.5732 88.1438 23.5732C88.1438 23.5732 88.1438 23.3347 88.1438 22.8577C88.1438 22.3808 88.1438 22.0293 88.1438 21.8033C88.1438 21.5649 88.1438 20.7239 88.1438 19.2803C88.1438 17.887 88.1438 17.0649 88.1438 16.8138C88.1438 16.5502 88.1438 16.1799 88.1438 15.7029C88.1438 15.2259 88.1438 14.9874 88.1438 14.9874C88.1438 14.9874 88.418 14.9874 88.9663 14.9874C89.5146 14.9874 89.7887 14.9874 89.7887 14.9874C89.7887 14.9874 89.7887 15.2259 89.7887 15.7029C89.7887 16.1799 89.7887 16.5502 89.7887 16.8138C89.7887 17.0774 89.7887 17.8996 89.7887 19.2803C89.7887 20.749 89.7887 21.5962 89.7887 21.8222C89.7887 22.0356 89.7887 22.3808 89.7887 22.8577C89.7887 23.3347 89.7887 23.5732 89.7887 23.5732C89.7887 23.5732 89.5146 23.5732 88.9663 23.5732ZM87.3214 14.9874C86.7731 14.9874 86.4989 14.9874 86.4989 14.9874C86.4989 14.9874 86.4989 14.749 86.4989 14.272C86.4989 13.795 86.4989 13.5565 86.4989 13.5565C86.4989 13.5565 86.7731 13.5565 87.3214 13.5565C87.8697 13.5565 88.1438 13.5565 88.1438 13.5565C88.1438 13.5565 88.1438 13.795 88.1438 14.272C88.1438 14.749 88.1438 14.9874 88.1438 14.9874C88.1438 14.9874 87.8697 14.9874 87.3214 14.9874ZM87.3214 13.5565C86.7731 13.5565 86.4989 13.5565 86.4989 13.5565C86.4989 13.5565 86.4989 13.318 86.4989 12.841C86.4989 12.364 86.4989 12.1255 86.4989 12.1255C86.4989 12.1255 86.7731 12.1255 87.3214 12.1255C87.8697 12.1255 88.1438 12.1255 88.1438 12.1255C88.1438 12.1255 88.1438 12.364 88.1438 12.841C88.1438 13.318 88.1438 13.5565 88.1438 13.5565C88.1438 13.5565 87.8697 13.5565 87.3214 13.5565ZM88.9663 14.9874C88.418 14.9874 88.1438 14.9874 88.1438 14.9874C88.1438 14.9874 88.1438 14.749 88.1438 14.272C88.1438 13.795 88.1438 13.5565 88.1438 13.5565C88.1438 13.5565 88.418 13.5565 88.9663 13.5565C89.5146 13.5565 89.7887 13.5565 89.7887 13.5565C89.7887 13.5565 89.7887 13.795 89.7887 14.272C89.7887 14.749 89.7887 14.9874 89.7887 14.9874C89.7887 14.9874 89.5146 14.9874 88.9663 14.9874ZM88.9663 13.5565C88.418 13.5565 88.1438 13.5565 88.1438 13.5565C88.1438 13.5565 88.1438 13.318 88.1438 12.841C88.1438 12.364 88.1438 12.1255 88.1438 12.1255C88.1438 12.1255 88.418 12.1255 88.9663 12.1255C89.5146 12.1255 89.7887 12.1255 89.7887 12.1255C89.7887 12.1255 89.7887 12.364 89.7887 12.841C89.7887 13.318 89.7887 13.5565 89.7887 13.5565C89.7887 13.5565 89.5146 13.5565 88.9663 13.5565ZM97.1909 26.4351C96.6426 26.4351 96.3684 26.4351 96.3684 26.4351C96.3684 26.4351 96.3684 26.1967 96.3684 25.7197C96.3684 25.2427 96.3684 25.0042 96.3684 25.0042C96.3684 25.0042 96.6426 25.0042 97.1909 25.0042C97.7392 25.0042 98.0134 25.0042 98.0134 25.0042C98.0134 25.0042 98.0134 25.2427 98.0134 25.7197C98.0134 26.1967 98.0134 26.4351 98.0134 26.4351C98.0134 26.4351 97.7392 26.4351 97.1909 26.4351ZM97.1909 25.0042C96.6426 25.0042 96.3684 25.0042 96.3684 25.0042C96.3684 25.0042 96.3684 24.7657 96.3684 24.2887C96.3684 23.8117 96.3684 23.5732 96.3684 23.5732C96.3684 23.5732 96.6426 23.5732 97.1909 23.5732C97.7392 23.5732 98.0134 23.5732 98.0134 23.5732C98.0134 23.5732 98.0134 23.8117 98.0134 24.2887C98.0134 24.7657 98.0134 25.0042 98.0134 25.0042C98.0134 25.0042 97.7392 25.0042 97.1909 25.0042ZM98.8358 26.4351C98.2875 26.4351 98.0134 26.4351 98.0134 26.4351C98.0134 26.4351 98.0134 26.1967 98.0134 25.7197C98.0134 25.2427 98.0134 25.0042 98.0134 25.0042C98.0134 25.0042 98.2875 25.0042 98.8358 25.0042C99.3841 25.0042 99.6583 25.0042 99.6583 25.0042C99.6583 25.0042 99.6583 25.2427 99.6583 25.7197C99.6583 26.1967 99.6583 26.4351 99.6583 26.4351C99.6583 26.4351 99.3841 26.4351 98.8358 26.4351ZM98.8358 25.0042C98.2875 25.0042 98.0134 25.0042 98.0134 25.0042C98.0134 25.0042 98.0134 24.7657 98.0134 24.2887C98.0134 23.8117 98.0134 23.5732 98.0134 23.5732C98.0134 23.5732 98.2875 23.5732 98.8358 23.5732C99.3841 23.5732 99.6583 23.5732 99.6583 23.5732C99.6583 23.5732 99.6583 23.8117 99.6583 24.2887C99.6583 24.7657 99.6583 25.0042 99.6583 25.0042C99.6583 25.0042 99.3841 25.0042 98.8358 25.0042Z" fill="#374143"/>
<path d="M110.37 26.7741C107.936 26.2845 106.078 25.3305 104.794 23.9121C103.51 22.4812 102.868 20.0711 102.868 16.682C102.868 15.5523 102.868 14.9874 102.868 14.9874C102.868 14.9874 103.142 14.9874 103.69 14.9874C104.239 14.9874 104.513 14.9874 104.513 14.9874C104.513 14.9874 104.513 15.6339 104.513 16.9268C104.513 19.4498 104.994 21.3515 105.957 22.6318C106.92 23.8996 108.404 24.8096 110.41 25.3619C111.119 25.4623 111.474 25.5126 111.474 25.5126C111.474 25.5126 111.474 25.7448 111.474 26.2092C111.474 26.6862 111.474 26.9247 111.474 26.9247C111.474 26.9247 111.106 26.8745 110.37 26.7741ZM110.41 25.3619C108.404 24.8096 106.92 23.8996 105.957 22.6318C104.994 21.3515 104.513 19.4498 104.513 16.9268C104.513 15.6339 104.513 14.9874 104.513 14.9874C104.513 14.9874 104.787 14.9874 105.335 14.9874C105.884 14.9874 106.158 14.9874 106.158 14.9874C106.158 14.9874 106.158 15.7155 106.158 17.1715C106.158 19.0669 106.492 20.5418 107.161 21.5962C107.843 22.6381 108.966 23.4163 110.531 23.931C111.159 24.0565 111.474 24.1192 111.474 24.1192C111.474 24.1192 111.474 24.3452 111.474 24.7971C111.474 25.2741 111.474 25.5126 111.474 25.5126C111.474 25.5126 111.119 25.4623 110.41 25.3619ZM115.867 26.7741C115.131 26.8745 114.764 26.9247 114.764 26.9247C114.764 26.9247 114.764 26.6862 114.764 26.2092C114.764 25.7573 114.764 25.5314 114.764 25.5314C114.764 25.5314 115.118 25.4686 115.827 25.3431C117.833 24.8033 119.31 23.8808 120.26 22.5753C121.223 21.2699 121.704 19.387 121.704 16.9268C121.704 15.6339 121.704 14.9874 121.704 14.9874C121.704 14.9874 121.978 14.9874 122.527 14.9874C123.075 14.9874 123.349 14.9874 123.349 14.9874C123.349 14.9874 123.349 15.5523 123.349 16.682C123.349 20.0711 122.707 22.4812 121.423 23.9121C120.153 25.3305 118.301 26.2845 115.867 26.7741ZM115.827 25.3431C115.118 25.4686 114.764 25.5314 114.764 25.5314C114.764 25.5314 114.764 25.3117 114.764 24.8724C114.764 24.3703 114.764 24.1192 114.764 24.1192C114.764 24.1192 115.078 24.0565 115.706 23.931C117.271 23.4163 118.388 22.6381 119.056 21.5962C119.725 20.5418 120.059 19.0669 120.059 17.1715C120.059 15.7155 120.059 14.9874 120.059 14.9874C120.059 14.9874 120.334 14.9874 120.882 14.9874C121.43 14.9874 121.704 14.9874 121.704 14.9874C121.704 14.9874 121.704 15.6339 121.704 16.9268C121.704 19.387 121.223 21.2699 120.26 22.5753C119.31 23.8808 117.833 24.8033 115.827 25.3431ZM103.69 3.53978C103.142 3.53978 102.868 3.53978 102.868 3.53978C102.868 3.53978 102.868 3.30129 102.868 2.8243C102.868 2.34731 102.868 2.10882 102.868 2.10882C102.868 2.10882 103.142 2.10882 103.69 2.10882C104.239 2.10882 104.513 2.10882 104.513 2.10882C104.513 2.10882 104.513 2.34731 104.513 2.8243C104.513 3.30129 104.513 3.53978 104.513 3.53978C104.513 3.53978 104.239 3.53978 103.69 3.53978ZM103.69 2.10882C103.142 2.10882 102.868 2.10882 102.868 2.10882C102.868 2.10882 102.868 1.87032 102.868 1.39334C102.868 0.91635 102.868 0.677856 102.868 0.677856C102.868 0.677856 103.142 0.677856 103.69 0.677856C104.239 0.677856 104.513 0.677856 104.513 0.677856C104.513 0.677856 104.513 0.91635 104.513 1.39334C104.513 1.87032 104.513 2.10882 104.513 2.10882C104.513 2.10882 104.239 2.10882 103.69 2.10882ZM105.335 3.53978C104.787 3.53978 104.513 3.53978 104.513 3.53978C104.513 3.53978 104.513 3.30129 104.513 2.8243C104.513 2.34731 104.513 2.10882 104.513 2.10882C104.513 2.10882 104.787 2.10882 105.335 2.10882C105.884 2.10882 106.158 2.10882 106.158 2.10882C106.158 2.10882 106.158 2.34731 106.158 2.8243C106.158 3.30129 106.158 3.53978 106.158 3.53978C106.158 3.53978 105.884 3.53978 105.335 3.53978ZM105.335 2.10882C104.787 2.10882 104.513 2.10882 104.513 2.10882C104.513 2.10882 104.513 1.87032 104.513 1.39334C104.513 0.91635 104.513 0.677856 104.513 0.677856C104.513 0.677856 104.787 0.677856 105.335 0.677856C105.884 0.677856 106.158 0.677856 106.158 0.677856C106.158 0.677856 106.158 0.91635 106.158 1.39334C106.158 1.87032 106.158 2.10882 106.158 2.10882C106.158 2.10882 105.884 2.10882 105.335 2.10882ZM120.882 3.53978C120.334 3.53978 120.059 3.53978 120.059 3.53978C120.059 3.53978 120.059 3.30129 120.059 2.8243C120.059 2.34731 120.059 2.10882 120.059 2.10882C120.059 2.10882 120.334 2.10882 120.882 2.10882C121.43 2.10882 121.704 2.10882 121.704 2.10882C121.704 2.10882 121.704 2.34731 121.704 2.8243C121.704 3.30129 121.704 3.53978 121.704 3.53978C121.704 3.53978 121.43 3.53978 120.882 3.53978ZM120.882 2.10882C120.334 2.10882 120.059 2.10882 120.059 2.10882C120.059 2.10882 120.059 1.87032 120.059 1.39334C120.059 0.91635 120.059 0.677856 120.059 0.677856C120.059 0.677856 120.334 0.677856 120.882 0.677856C121.43 0.677856 121.704 0.677856 121.704 0.677856C121.704 0.677856 121.704 0.91635 121.704 1.39334C121.704 1.87032 121.704 2.10882 121.704 2.10882C121.704 2.10882 121.43 2.10882 120.882 2.10882ZM122.527 3.53978C121.978 3.53978 121.704 3.53978 121.704 3.53978C121.704 3.53978 121.704 3.30129 121.704 2.8243C121.704 2.34731 121.704 2.10882 121.704 2.10882C121.704 2.10882 121.978 2.10882 122.527 2.10882C123.075 2.10882 123.349 2.10882 123.349 2.10882C123.349 2.10882 123.349 2.34731 123.349 2.8243C123.349 3.30129 123.349 3.53978 123.349 3.53978C123.349 3.53978 123.075 3.53978 122.527 3.53978ZM122.527 2.10882C121.978 2.10882 121.704 2.10882 121.704 2.10882C121.704 2.10882 121.704 1.87032 121.704 1.39334C121.704 0.91635 121.704 0.677856 121.704 0.677856C121.704 0.677856 121.978 0.677856 122.527 0.677856C123.075 0.677856 123.349 0.677856 123.349 0.677856C123.349 0.677856 123.349 0.91635 123.349 1.39334C123.349 1.87032 123.349 2.10882 123.349 2.10882C123.349 2.10882 123.075 2.10882 122.527 2.10882ZM103.69 14.9874C103.142 14.9874 102.868 14.9874 102.868 14.9874C102.868 14.9874 102.868 14.749 102.868 14.272C102.868 13.795 102.868 13.5565 102.868 13.5565C102.868 13.5565 103.142 13.5565 103.69 13.5565C104.239 13.5565 104.513 13.5565 104.513 13.5565C104.513 13.5565 104.513 13.795 104.513 14.272C104.513 14.749 104.513 14.9874 104.513 14.9874C104.513 14.9874 104.239 14.9874 103.69 14.9874ZM103.69 13.5565C103.142 13.5565 102.868 13.5565 102.868 13.5565C102.868 13.5565 102.868 13.318 102.868 12.841C102.868 12.364 102.868 12.1255 102.868 12.1255C102.868 12.1255 103.142 12.1255 103.69 12.1255C104.239 12.1255 104.513 12.1255 104.513 12.1255C104.513 12.1255 104.513 12.364 104.513 12.841C104.513 13.318 104.513 13.5565 104.513 13.5565C104.513 13.5565 104.239 13.5565 103.69 13.5565ZM105.335 14.9874C104.787 14.9874 104.513 14.9874 104.513 14.9874C104.513 14.9874 104.513 14.749 104.513 14.272C104.513 13.795 104.513 13.5565 104.513 13.5565C104.513 13.5565 104.787 13.5565 105.335 13.5565C105.884 13.5565 106.158 13.5565 106.158 13.5565C106.158 13.5565 106.158 13.795 106.158 14.272C106.158 14.749 106.158 14.9874 106.158 14.9874C106.158 14.9874 105.884 14.9874 105.335 14.9874ZM105.335 13.5565C104.787 13.5565 104.513 13.5565 104.513 13.5565C104.513 13.5565 104.513 13.318 104.513 12.841C104.513 12.364 104.513 12.1255 104.513 12.1255C104.513 12.1255 104.787 12.1255 105.335 12.1255C105.884 12.1255 106.158 12.1255 106.158 12.1255C106.158 12.1255 106.158 12.364 106.158 12.841C106.158 13.318 106.158 13.5565 106.158 13.5565C106.158 13.5565 105.884 13.5565 105.335 13.5565ZM120.882 14.9874C120.334 14.9874 120.059 14.9874 120.059 14.9874C120.059 14.9874 120.059 14.749 120.059 14.272C120.059 13.795 120.059 13.5565 120.059 13.5565C120.059 13.5565 120.334 13.5565 120.882 13.5565C121.43 13.5565 121.704 13.5565 121.704 13.5565C121.704 13.5565 121.704 13.795 121.704 14.272C121.704 14.749 121.704 14.9874 121.704 14.9874C121.704 14.9874 121.43 14.9874 120.882 14.9874ZM120.882 13.5565C120.334 13.5565 120.059 13.5565 120.059 13.5565C120.059 13.5565 120.059 13.318 120.059 12.841C120.059 12.364 120.059 12.1255 120.059 12.1255C120.059 12.1255 120.334 12.1255 120.882 12.1255C121.43 12.1255 121.704 12.1255 121.704 12.1255C121.704 12.1255 121.704 12.364 121.704 12.841C121.704 13.318 121.704 13.5565 121.704 13.5565C121.704 13.5565 121.43 13.5565 120.882 13.5565ZM122.527 14.9874C121.978 14.9874 121.704 14.9874 121.704 14.9874C121.704 14.9874 121.704 14.749 121.704 14.272C121.704 13.795 121.704 13.5565 121.704 13.5565C121.704 13.5565 121.978 13.5565 122.527 13.5565C123.075 13.5565 123.349 13.5565 123.349 13.5565C123.349 13.5565 123.349 13.795 123.349 14.272C123.349 14.749 123.349 14.9874 123.349 14.9874C123.349 14.9874 123.075 14.9874 122.527 14.9874ZM122.527 13.5565C121.978 13.5565 121.704 13.5565 121.704 13.5565C121.704 13.5565 121.704 13.318 121.704 12.841C121.704 12.364 121.704 12.1255 121.704 12.1255C121.704 12.1255 121.978 12.1255 122.527 12.1255C123.075 12.1255 123.349 12.1255 123.349 12.1255C123.349 12.1255 123.349 12.364 123.349 12.841C123.349 13.318 123.349 13.5565 123.349 13.5565C123.349 13.5565 123.075 13.5565 122.527 13.5565ZM103.69 12.1255C103.142 12.1255 102.868 12.1255 102.868 12.1255C102.868 12.1255 102.868 11.887 102.868 11.41C102.868 10.9331 102.868 10.569 102.868 10.318C102.868 10.0544 102.868 9.20087 102.868 7.75735C102.868 6.36405 102.868 5.55442 102.868 5.32848C102.868 5.08999 102.868 4.73225 102.868 4.25526C102.868 3.77827 102.868 3.53978 102.868 3.53978C102.868 3.53978 103.142 3.53978 103.69 3.53978C104.239 3.53978 104.513 3.53978 104.513 3.53978C104.513 3.53978 104.513 3.77827 104.513 4.25526C104.513 4.73225 104.513 5.08999 104.513 5.32848C104.513 5.56698 104.513 6.3766 104.513 7.75735C104.513 9.22597 104.513 10.0858 104.513 10.3368C104.513 10.5753 104.513 10.9331 104.513 11.41C104.513 11.887 104.513 12.1255 104.513 12.1255C104.513 12.1255 104.239 12.1255 103.69 12.1255ZM105.335 12.1255C104.787 12.1255 104.513 12.1255 104.513 12.1255C104.513 12.1255 104.513 11.887 104.513 11.41C104.513 10.9331 104.513 10.569 104.513 10.318C104.513 10.0544 104.513 9.20087 104.513 7.75735C104.513 6.36405 104.513 5.55442 104.513 5.32848C104.513 5.08999 104.513 4.73225 104.513 4.25526C104.513 3.77827 104.513 3.53978 104.513 3.53978C104.513 3.53978 104.787 3.53978 105.335 3.53978C105.884 3.53978 106.158 3.53978 106.158 3.53978C106.158 3.53978 106.158 3.77827 106.158 4.25526C106.158 4.73225 106.158 5.08999 106.158 5.32848C106.158 5.56698 106.158 6.3766 106.158 7.75735C106.158 9.22597 106.158 10.0858 106.158 10.3368C106.158 10.5753 106.158 10.9331 106.158 11.41C106.158 11.887 106.158 12.1255 106.158 12.1255C106.158 12.1255 105.884 12.1255 105.335 12.1255ZM120.882 12.1255C120.334 12.1255 120.059 12.1255 120.059 12.1255C120.059 12.1255 120.059 11.887 120.059 11.41C120.059 10.9331 120.059 10.569 120.059 10.318C120.059 10.0544 120.059 9.20087 120.059 7.75735C120.059 6.36405 120.059 5.55442 120.059 5.32848C120.059 5.08999 120.059 4.73225 120.059 4.25526C120.059 3.77827 120.059 3.53978 120.059 3.53978C120.059 3.53978 120.334 3.53978 120.882 3.53978C121.43 3.53978 121.704 3.53978 121.704 3.53978C121.704 3.53978 121.704 3.77827 121.704 4.25526C121.704 4.73225 121.704 5.08999 121.704 5.32848C121.704 5.56698 121.704 6.3766 121.704 7.75735C121.704 9.22597 121.704 10.0858 121.704 10.3368C121.704 10.5753 121.704 10.9331 121.704 11.41C121.704 11.887 121.704 12.1255 121.704 12.1255C121.704 12.1255 121.43 12.1255 120.882 12.1255ZM122.527 12.1255C121.978 12.1255 121.704 12.1255 121.704 12.1255C121.704 12.1255 121.704 11.887 121.704 11.41C121.704 10.9331 121.704 10.569 121.704 10.318C121.704 10.0544 121.704 9.20087 121.704 7.75735C121.704 6.36405 121.704 5.55442 121.704 5.32848C121.704 5.08999 121.704 4.73225 121.704 4.25526C121.704 3.77827 121.704 3.53978 121.704 3.53978C121.704 3.53978 121.978 3.53978 122.527 3.53978C123.075 3.53978 123.349 3.53978 123.349 3.53978C123.349 3.53978 123.349 3.77827 123.349 4.25526C123.349 4.73225 123.349 5.08999 123.349 5.32848C123.349 5.56698 123.349 6.3766 123.349 7.75735C123.349 9.22597 123.349 10.0858 123.349 10.3368C123.349 10.5753 123.349 10.9331 123.349 11.41C123.349 11.887 123.349 12.1255 123.349 12.1255C123.349 12.1255 123.075 12.1255 122.527 12.1255ZM112.296 26.9812C111.748 26.9435 111.474 26.9247 111.474 26.9247C111.474 26.9247 111.474 26.6862 111.474 26.2092C111.474 25.7448 111.474 25.5126 111.474 25.5126C111.474 25.5126 111.754 25.5439 112.316 25.6067C112.851 25.6192 113.119 25.6255 113.119 25.6255C113.119 25.6255 113.119 25.8452 113.119 26.2845C113.119 26.7615 113.119 27 113.119 27C113.119 27 112.844 26.9937 112.296 26.9812ZM112.316 25.6067C111.754 25.5439 111.474 25.5126 111.474 25.5126C111.474 25.5126 111.474 25.3054 111.474 24.8912C111.474 24.3766 111.474 24.1192 111.474 24.1192C111.474 24.1192 111.761 24.1444 112.336 24.1946C112.858 24.2071 113.119 24.2134 113.119 24.2134C113.119 24.2134 113.119 24.4519 113.119 24.9289C113.119 25.3933 113.119 25.6255 113.119 25.6255C113.119 25.6255 112.851 25.6192 112.316 25.6067ZM113.941 26.9812C113.393 26.9937 113.119 27 113.119 27C113.119 27 113.119 26.7615 113.119 26.2845C113.119 25.8452 113.119 25.6255 113.119 25.6255C113.119 25.6255 113.386 25.6192 113.921 25.6067C114.483 25.5565 114.764 25.5314 114.764 25.5314C114.764 25.5314 114.764 25.7573 114.764 26.2092C114.764 26.6862 114.764 26.9247 114.764 26.9247C114.764 26.9247 114.489 26.9435 113.941 26.9812ZM113.921 25.6067C113.386 25.6192 113.119 25.6255 113.119 25.6255C113.119 25.6255 113.119 25.3933 113.119 24.9289C113.119 24.4519 113.119 24.2134 113.119 24.2134C113.119 24.2134 113.379 24.2071 113.901 24.1946C114.476 24.1444 114.764 24.1192 114.764 24.1192C114.764 24.1192 114.764 24.3703 114.764 24.8724C114.764 25.3117 114.764 25.5314 114.764 25.5314C114.764 25.5314 114.483 25.5565 113.921 25.6067Z" fill="#374143"/>
<path d="M130.611 3.53978C130.116 3.53978 129.869 3.53978 129.869 3.53978C129.869 3.53978 129.869 3.30129 129.869 2.8243C129.869 2.34731 129.869 2.10882 129.869 2.10882C129.869 2.10882 130.116 2.10882 130.611 2.10882C130.758 2.10882 131.019 2.10882 131.393 2.10882C131.781 2.10882 132.129 2.10882 132.436 2.10882C132.784 2.10882 133.159 2.10882 133.56 2.10882C133.961 2.10882 134.235 2.10882 134.382 2.10882C134.89 2.10882 135.145 2.10882 135.145 2.10882C135.145 2.10882 135.145 2.34103 135.145 2.80547C135.145 3.29501 135.145 3.53978 135.145 3.53978C135.145 3.53978 134.89 3.53978 134.382 3.53978C134.235 3.53978 133.968 3.53978 133.58 3.53978C133.192 3.53978 132.818 3.53978 132.456 3.53978C132.162 3.53978 131.821 3.53978 131.433 3.53978C131.046 3.53978 130.771 3.53978 130.611 3.53978ZM130.611 2.10882C130.116 2.10882 129.869 2.10882 129.869 2.10882C129.869 2.10882 129.869 1.87032 129.869 1.39334C129.869 0.91635 129.869 0.677856 129.869 0.677856C129.869 0.677856 130.116 0.677856 130.611 0.677856C130.771 0.677856 131.032 0.677856 131.393 0.677856C131.768 0.677856 132.115 0.677856 132.436 0.677856C132.771 0.677856 133.138 0.677856 133.54 0.677856C133.954 0.677856 134.235 0.677856 134.382 0.677856C134.89 0.677856 135.145 0.677856 135.145 0.677856C135.145 0.677856 135.145 0.910074 135.145 1.37451C135.145 1.86405 135.145 2.10882 135.145 2.10882C135.145 2.10882 134.89 2.10882 134.382 2.10882C134.235 2.10882 133.961 2.10882 133.56 2.10882C133.159 2.10882 132.784 2.10882 132.436 2.10882C132.129 2.10882 131.781 2.10882 131.393 2.10882C131.019 2.10882 130.758 2.10882 130.611 2.10882ZM139.177 3.53978C138.682 3.53978 138.434 3.53978 138.434 3.53978C138.434 3.53978 138.434 3.30129 138.434 2.8243C138.434 2.34731 138.434 2.10882 138.434 2.10882C138.434 2.10882 138.682 2.10882 139.177 2.10882C139.324 2.10882 139.571 2.10882 139.919 2.10882C140.28 2.10882 140.661 2.10882 141.062 2.10882C141.45 2.10882 141.825 2.10882 142.186 2.10882C142.547 2.10882 142.801 2.10882 142.948 2.10882C143.456 2.10882 143.71 2.10882 143.71 2.10882C143.71 2.10882 143.71 2.34103 143.71 2.80547C143.71 3.29501 143.71 3.53978 143.71 3.53978C143.71 3.53978 143.456 3.53978 142.948 3.53978C142.801 3.53978 142.54 3.53978 142.166 3.53978C141.804 3.53978 141.443 3.53978 141.082 3.53978C140.654 3.53978 140.267 3.53978 139.919 3.53978C139.571 3.53978 139.324 3.53978 139.177 3.53978ZM139.177 2.10882C138.682 2.10882 138.434 2.10882 138.434 2.10882C138.434 2.10882 138.434 1.87032 138.434 1.39334C138.434 0.91635 138.434 0.677856 138.434 0.677856C138.434 0.677856 138.682 0.677856 139.177 0.677856C139.337 0.677856 139.591 0.677856 139.939 0.677856C140.3 0.677856 140.681 0.677856 141.082 0.677856C141.47 0.677856 141.838 0.677856 142.186 0.677856C142.547 0.677856 142.801 0.677856 142.948 0.677856C143.456 0.677856 143.71 0.677856 143.71 0.677856C143.71 0.677856 143.71 0.910074 143.71 1.37451C143.71 1.86405 143.71 2.10882 143.71 2.10882C143.71 2.10882 143.456 2.10882 142.948 2.10882C142.801 2.10882 142.553 2.10882 142.206 2.10882C141.871 2.10882 141.49 2.10882 141.062 2.10882C140.701 2.10882 140.333 2.10882 139.959 2.10882C139.598 2.10882 139.337 2.10882 139.177 2.10882ZM135.967 26.4351C135.419 26.4351 135.145 26.4351 135.145 26.4351C135.145 26.4351 135.145 26.1967 135.145 25.7197C135.145 25.2427 135.145 25.0042 135.145 25.0042C135.145 25.0042 135.419 25.0042 135.967 25.0042C136.515 25.0042 136.789 25.0042 136.789 25.0042C136.789 25.0042 136.789 25.2427 136.789 25.7197C136.789 26.1967 136.789 26.4351 136.789 26.4351C136.789 26.4351 136.515 26.4351 135.967 26.4351ZM135.967 25.0042C135.419 25.0042 135.145 25.0042 135.145 25.0042C135.145 25.0042 135.145 24.7657 135.145 24.2887C135.145 23.8117 135.145 23.5732 135.145 23.5732C135.145 23.5732 135.419 23.5732 135.967 23.5732C136.515 23.5732 136.789 23.5732 136.789 23.5732C136.789 23.5732 136.789 23.8117 136.789 24.2887C136.789 24.7657 136.789 25.0042 136.789 25.0042C136.789 25.0042 136.515 25.0042 135.967 25.0042ZM137.612 26.4351C137.064 26.4351 136.789 26.4351 136.789 26.4351C136.789 26.4351 136.789 26.1967 136.789 25.7197C136.789 25.2427 136.789 25.0042 136.789 25.0042C136.789 25.0042 137.064 25.0042 137.612 25.0042C138.16 25.0042 138.434 25.0042 138.434 25.0042C138.434 25.0042 138.434 25.2427 138.434 25.7197C138.434 26.1967 138.434 26.4351 138.434 26.4351C138.434 26.4351 138.16 26.4351 137.612 26.4351ZM137.612 25.0042C137.064 25.0042 136.789 25.0042 136.789 25.0042C136.789 25.0042 136.789 24.7657 136.789 24.2887C136.789 23.8117 136.789 23.5732 136.789 23.5732C136.789 23.5732 137.064 23.5732 137.612 23.5732C138.16 23.5732 138.434 23.5732 138.434 23.5732C138.434 23.5732 138.434 23.8117 138.434 24.2887C138.434 24.7657 138.434 25.0042 138.434 25.0042C138.434 25.0042 138.16 25.0042 137.612 25.0042ZM144.533 3.53978C143.984 3.53978 143.71 3.53978 143.71 3.53978C143.71 3.53978 143.71 3.30129 143.71 2.8243C143.71 2.34731 143.71 2.10882 143.71 2.10882C143.71 2.10882 143.984 2.10882 144.533 2.10882C145.081 2.10882 145.355 2.10882 145.355 2.10882C145.355 2.10882 145.355 2.34731 145.355 2.8243C145.355 3.30129 145.355 3.53978 145.355 3.53978C145.355 3.53978 145.081 3.53978 144.533 3.53978ZM144.533 2.10882C143.984 2.10882 143.71 2.10882 143.71 2.10882C143.71 2.10882 143.71 1.87032 143.71 1.39334C143.71 0.91635 143.71 0.677856 143.71 0.677856C143.71 0.677856 143.984 0.677856 144.533 0.677856C145.081 0.677856 145.355 0.677856 145.355 0.677856C145.355 0.677856 145.355 0.91635 145.355 1.39334C145.355 1.87032 145.355 2.10882 145.355 2.10882C145.355 2.10882 145.081 2.10882 144.533 2.10882ZM146.178 3.53978C145.629 3.53978 145.355 3.53978 145.355 3.53978C145.355 3.53978 145.355 3.30129 145.355 2.8243C145.355 2.34731 145.355 2.10882 145.355 2.10882C145.355 2.10882 145.629 2.10882 146.178 2.10882C146.726 2.10882 147 2.10882 147 2.10882C147 2.10882 147 2.34731 147 2.8243C147 3.30129 147 3.53978 147 3.53978C147 3.53978 146.726 3.53978 146.178 3.53978ZM146.178 2.10882C145.629 2.10882 145.355 2.10882 145.355 2.10882C145.355 2.10882 145.355 1.87032 145.355 1.39334C145.355 0.91635 145.355 0.677856 145.355 0.677856C145.355 0.677856 145.629 0.677856 146.178 0.677856C146.726 0.677856 147 0.677856 147 0.677856C147 0.677856 147 0.91635 147 1.39334C147 1.87032 147 2.10882 147 2.10882C147 2.10882 146.726 2.10882 146.178 2.10882ZM127.401 3.53978C126.853 3.53978 126.579 3.53978 126.579 3.53978C126.579 3.53978 126.579 3.30129 126.579 2.8243C126.579 2.34731 126.579 2.10882 126.579 2.10882C126.579 2.10882 126.853 2.10882 127.401 2.10882C127.95 2.10882 128.224 2.10882 128.224 2.10882C128.224 2.10882 128.224 2.34731 128.224 2.8243C128.224 3.30129 128.224 3.53978 128.224 3.53978C128.224 3.53978 127.95 3.53978 127.401 3.53978ZM127.401 2.10882C126.853 2.10882 126.579 2.10882 126.579 2.10882C126.579 2.10882 126.579 1.87032 126.579 1.39334C126.579 0.91635 126.579 0.677856 126.579 0.677856C126.579 0.677856 126.853 0.677856 127.401 0.677856C127.95 0.677856 128.224 0.677856 128.224 0.677856C128.224 0.677856 128.224 0.91635 128.224 1.39334C128.224 1.87032 128.224 2.10882 128.224 2.10882C128.224 2.10882 127.95 2.10882 127.401 2.10882ZM129.046 3.53978C128.498 3.53978 128.224 3.53978 128.224 3.53978C128.224 3.53978 128.224 3.30129 128.224 2.8243C128.224 2.34731 128.224 2.10882 128.224 2.10882C128.224 2.10882 128.498 2.10882 129.046 2.10882C129.595 2.10882 129.869 2.10882 129.869 2.10882C129.869 2.10882 129.869 2.34731 129.869 2.8243C129.869 3.30129 129.869 3.53978 129.869 3.53978C129.869 3.53978 129.595 3.53978 129.046 3.53978ZM129.046 2.10882C128.498 2.10882 128.224 2.10882 128.224 2.10882C128.224 2.10882 128.224 1.87032 128.224 1.39334C128.224 0.91635 128.224 0.677856 128.224 0.677856C128.224 0.677856 128.498 0.677856 129.046 0.677856C129.595 0.677856 129.869 0.677856 129.869 0.677856C129.869 0.677856 129.869 0.91635 129.869 1.39334C129.869 1.87032 129.869 2.10882 129.869 2.10882C129.869 2.10882 129.595 2.10882 129.046 2.10882ZM135.967 14.9874C135.419 14.9874 135.145 14.9874 135.145 14.9874C135.145 14.9874 135.145 14.749 135.145 14.272C135.145 13.795 135.145 13.5565 135.145 13.5565C135.145 13.5565 135.419 13.5565 135.967 13.5565C136.515 13.5565 136.789 13.5565 136.789 13.5565C136.789 13.5565 136.789 13.795 136.789 14.272C136.789 14.749 136.789 14.9874 136.789 14.9874C136.789 14.9874 136.515 14.9874 135.967 14.9874ZM135.967 13.5565C135.419 13.5565 135.145 13.5565 135.145 13.5565C135.145 13.5565 135.145 13.318 135.145 12.841C135.145 12.364 135.145 12.1255 135.145 12.1255C135.145 12.1255 135.419 12.1255 135.967 12.1255C136.515 12.1255 136.789 12.1255 136.789 12.1255C136.789 12.1255 136.789 12.364 136.789 12.841C136.789 13.318 136.789 13.5565 136.789 13.5565C136.789 13.5565 136.515 13.5565 135.967 13.5565ZM137.612 14.9874C137.064 14.9874 136.789 14.9874 136.789 14.9874C136.789 14.9874 136.789 14.749 136.789 14.272C136.789 13.795 136.789 13.5565 136.789 13.5565C136.789 13.5565 137.064 13.5565 137.612 13.5565C138.16 13.5565 138.434 13.5565 138.434 13.5565C138.434 13.5565 138.434 13.795 138.434 14.272C138.434 14.749 138.434 14.9874 138.434 14.9874C138.434 14.9874 138.16 14.9874 137.612 14.9874ZM137.612 13.5565C137.064 13.5565 136.789 13.5565 136.789 13.5565C136.789 13.5565 136.789 13.318 136.789 12.841C136.789 12.364 136.789 12.1255 136.789 12.1255C136.789 12.1255 137.064 12.1255 137.612 12.1255C138.16 12.1255 138.434 12.1255 138.434 12.1255C138.434 12.1255 138.434 12.364 138.434 12.841C138.434 13.318 138.434 13.5565 138.434 13.5565C138.434 13.5565 138.16 13.5565 137.612 13.5565ZM135.967 3.53978C135.419 3.53978 135.145 3.53978 135.145 3.53978C135.145 3.53978 135.145 3.30129 135.145 2.8243C135.145 2.34731 135.145 2.10882 135.145 2.10882C135.145 2.10882 135.419 2.10882 135.967 2.10882C136.515 2.10882 136.789 2.10882 136.789 2.10882C136.789 2.10882 136.789 2.34731 136.789 2.8243C136.789 3.30129 136.789 3.53978 136.789 3.53978C136.789 3.53978 136.515 3.53978 135.967 3.53978ZM135.967 2.10882C135.419 2.10882 135.145 2.10882 135.145 2.10882C135.145 2.10882 135.145 1.87032 135.145 1.39334C135.145 0.91635 135.145 0.677856 135.145 0.677856C135.145 0.677856 135.419 0.677856 135.967 0.677856C136.515 0.677856 136.789 0.677856 136.789 0.677856C136.789 0.677856 136.789 0.91635 136.789 1.39334C136.789 1.87032 136.789 2.10882 136.789 2.10882C136.789 2.10882 136.515 2.10882 135.967 2.10882ZM137.612 3.53978C137.064 3.53978 136.789 3.53978 136.789 3.53978C136.789 3.53978 136.789 3.30129 136.789 2.8243C136.789 2.34731 136.789 2.10882 136.789 2.10882C136.789 2.10882 137.064 2.10882 137.612 2.10882C138.16 2.10882 138.434 2.10882 138.434 2.10882C138.434 2.10882 138.434 2.34731 138.434 2.8243C138.434 3.30129 138.434 3.53978 138.434 3.53978C138.434 3.53978 138.16 3.53978 137.612 3.53978ZM137.612 2.10882C137.064 2.10882 136.789 2.10882 136.789 2.10882C136.789 2.10882 136.789 1.87032 136.789 1.39334C136.789 0.91635 136.789 0.677856 136.789 0.677856C136.789 0.677856 137.064 0.677856 137.612 0.677856C138.16 0.677856 138.434 0.677856 138.434 0.677856C138.434 0.677856 138.434 0.91635 138.434 1.39334C138.434 1.87032 138.434 2.10882 138.434 2.10882C138.434 2.10882 138.16 2.10882 137.612 2.10882ZM135.967 12.1255C135.419 12.1255 135.145 12.1255 135.145 12.1255C135.145 12.1255 135.145 11.887 135.145 11.41C135.145 10.9331 135.145 10.569 135.145 10.318C135.145 10.0544 135.145 9.20087 135.145 7.75735C135.145 6.36405 135.145 5.55442 135.145 5.32848C135.145 5.08999 135.145 4.73225 135.145 4.25526C135.145 3.77827 135.145 3.53978 135.145 3.53978C135.145 3.53978 135.419 3.53978 135.967 3.53978C136.515 3.53978 136.789 3.53978 136.789 3.53978C136.789 3.53978 136.789 3.77827 136.789 4.25526C136.789 4.73225 136.789 5.08999 136.789 5.32848C136.789 5.56698 136.789 6.3766 136.789 7.75735C136.789 9.22597 136.789 10.0858 136.789 10.3368C136.789 10.5753 136.789 10.9331 136.789 11.41C136.789 11.887 136.789 12.1255 136.789 12.1255C136.789 12.1255 136.515 12.1255 135.967 12.1255ZM137.612 12.1255C137.064 12.1255 136.789 12.1255 136.789 12.1255C136.789 12.1255 136.789 11.887 136.789 11.41C136.789 10.9331 136.789 10.569 136.789 10.318C136.789 10.0544 136.789 9.20087 136.789 7.75735C136.789 6.36405 136.789 5.55442 136.789 5.32848C136.789 5.08999 136.789 4.73225 136.789 4.25526C136.789 3.77827 136.789 3.53978 136.789 3.53978C136.789 3.53978 137.064 3.53978 137.612 3.53978C138.16 3.53978 138.434 3.53978 138.434 3.53978C138.434 3.53978 138.434 3.77827 138.434 4.25526C138.434 4.73225 138.434 5.08999 138.434 5.32848C138.434 5.56698 138.434 6.3766 138.434 7.75735C138.434 9.22597 138.434 10.0858 138.434 10.3368C138.434 10.5753 138.434 10.9331 138.434 11.41C138.434 11.887 138.434 12.1255 138.434 12.1255C138.434 12.1255 138.16 12.1255 137.612 12.1255ZM135.967 23.5732C135.419 23.5732 135.145 23.5732 135.145 23.5732C135.145 23.5732 135.145 23.3347 135.145 22.8577C135.145 22.3808 135.145 22.0293 135.145 21.8033C135.145 21.5649 135.145 20.7239 135.145 19.2803C135.145 17.887 135.145 17.0649 135.145 16.8138C135.145 16.5502 135.145 16.1799 135.145 15.7029C135.145 15.2259 135.145 14.9874 135.145 14.9874C135.145 14.9874 135.419 14.9874 135.967 14.9874C136.515 14.9874 136.789 14.9874 136.789 14.9874C136.789 14.9874 136.789 15.2259 136.789 15.7029C136.789 16.1799 136.789 16.5502 136.789 16.8138C136.789 17.0774 136.789 17.8996 136.789 19.2803C136.789 20.749 136.789 21.5962 136.789 21.8222C136.789 22.0356 136.789 22.3808 136.789 22.8577C136.789 23.3347 136.789 23.5732 136.789 23.5732C136.789 23.5732 136.515 23.5732 135.967 23.5732ZM137.612 23.5732C137.064 23.5732 136.789 23.5732 136.789 23.5732C136.789 23.5732 136.789 23.3347 136.789 22.8577C136.789 22.3808 136.789 22.0293 136.789 21.8033C136.789 21.5649 136.789 20.7239 136.789 19.2803C136.789 17.887 136.789 17.0649 136.789 16.8138C136.789 16.5502 136.789 16.1799 136.789 15.7029C136.789 15.2259 136.789 14.9874 136.789 14.9874C136.789 14.9874 137.064 14.9874 137.612 14.9874C138.16 14.9874 138.434 14.9874 138.434 14.9874C138.434 14.9874 138.434 15.2259 138.434 15.7029C138.434 16.1799 138.434 16.5502 138.434 16.8138C138.434 17.0774 138.434 17.8996 138.434 19.2803C138.434 20.749 138.434 21.5962 138.434 21.8222C138.434 22.0356 138.434 22.3808 138.434 22.8577C138.434 23.3347 138.434 23.5732 138.434 23.5732C138.434 23.5732 138.16 23.5732 137.612 23.5732Z" fill="#374143"/>
</svg>
