<svg width="62" height="64" viewBox="0 0 62 64" fill="none" xmlns="http://www.w3.org/2000/svg">
<path d="M31 62.8571C47.5093 62.8571 60.8928 49.0419 60.8928 32C60.8928 14.958 47.5093 1.14282 31 1.14282C14.4906 1.14282 1.10712 14.958 1.10712 32C1.10712 49.0419 14.4906 62.8571 31 62.8571Z" stroke="white" stroke-width="2"/>
<path d="M43.1781 45.5717V42.5434C43.1781 40.937 42.5599 39.3964 41.4595 38.2605C40.3591 37.1246 38.8667 36.4866 37.3106 36.4866H25.5755C24.0193 36.4866 22.5269 37.1246 21.4265 38.2605C20.3261 39.3964 19.708 40.937 19.708 42.5434V45.5717" stroke="white" stroke-width="2" stroke-linecap="round" stroke-linejoin="round"/>
<path d="M31.4432 30.4305C34.6837 30.4305 37.3107 27.7188 37.3107 24.3737C37.3107 21.0287 34.6837 18.3169 31.4432 18.3169C28.2026 18.3169 25.5757 21.0287 25.5757 24.3737C25.5757 27.7188 28.2026 30.4305 31.4432 30.4305Z" stroke="white" stroke-width="2" stroke-linecap="round" stroke-linejoin="round"/>
</svg>
