<svg width="14" height="24" viewBox="0 0 14 24" fill="none" xmlns="http://www.w3.org/2000/svg">
<path d="M7.82492 21.0701L12.123 16.5372C12.2763 16.381 12.4815 16.2946 12.6946 16.2966C12.9076 16.2985 13.1114 16.3887 13.262 16.5476C13.4127 16.7066 13.4981 16.9216 13.5 17.1463C13.5018 17.3711 13.4199 17.5876 13.2719 17.7493L7.63642 23.6931C7.56005 23.7893 7.46458 23.8667 7.35675 23.9197C7.24893 23.9728 7.13138 24.0002 7.01242 24H7.0108C6.90391 24 6.79808 23.9777 6.69937 23.9345C6.60066 23.8912 6.51101 23.8278 6.43555 23.748L6.4193 23.7308L0.748046 17.7476C0.670444 17.6685 0.608547 17.5739 0.565964 17.4693C0.523382 17.3647 0.500968 17.2522 0.500031 17.1384C0.499093 17.0246 0.519651 16.9117 0.560504 16.8064C0.601357 16.701 0.661688 16.6053 0.737976 16.5248C0.814263 16.4444 0.904981 16.3807 1.00483 16.3376C1.10469 16.2945 1.21168 16.2728 1.31956 16.2738C1.42744 16.2748 1.53406 16.2984 1.63319 16.3434C1.73232 16.3883 1.82197 16.4536 1.89692 16.5355L6.19992 21.0769V0.857204C6.19992 0.629859 6.28552 0.411826 6.4379 0.251069C6.59027 0.0903125 6.79693 0 7.01242 0C7.22791 0 7.43457 0.0903125 7.58695 0.251069C7.73932 0.411826 7.82492 0.629859 7.82492 0.857204V21.0701Z" fill="white"/>
</svg>
